<svg width="218" height="33" viewBox="0 0 218 33" fill="none" xmlns="http://www.w3.org/2000/svg">
<g clip-path="url(#clip0_705_8718)">
<path d="M27.5286 23.183C27.5286 26.8729 24.4473 29.8648 20.6471 29.8648C16.8469 29.8648 13.7656 26.8729 13.7656 23.183C13.7656 19.4931 16.8469 16.5012 20.6471 16.5012C24.4473 16.5012 27.5286 19.4931 27.5286 23.183Z" fill="#D50037"/>
<path d="M27.5286 9.81704C27.5286 13.507 24.4473 16.4988 20.6471 16.4988C16.8469 16.4988 13.7656 13.507 13.7656 9.81704C13.7656 6.12713 16.8469 3.13525 20.6471 3.13525C24.4473 3.13525 27.5286 6.12713 27.5286 9.81704Z" fill="#D50037"/>
<path d="M13.763 9.81704C13.763 6.12713 10.6817 3.13525 6.88148 3.13525C3.0813 3.13525 0 6.12713 0 9.81704V23.1806C0 26.8705 3.0813 29.8624 6.88148 29.8624C10.6817 29.8624 13.763 26.8705 13.763 23.1806V9.81704Z" fill="#D50037"/>
<path d="M34.4536 25.0373V8.06372H42.5696C44.2155 8.06372 45.5395 8.49617 46.5392 9.36106C47.5364 10.226 48.0375 11.3047 48.0375 12.5974C48.0375 13.373 47.8487 14.0968 47.4759 14.7667C47.1007 15.4388 46.5973 15.977 45.9655 16.3789C46.9144 16.7832 47.6211 17.3543 48.0859 18.0899C48.553 18.8256 48.7854 19.6199 48.7854 20.4778C48.7854 21.7869 48.2819 22.8727 47.275 23.7376C46.2681 24.6025 44.9078 25.0349 43.194 25.0349H34.4536V25.0373ZM38.0747 15.1192H42.4437C43.044 15.1192 43.5305 14.9335 43.9057 14.5622C44.2784 14.1908 44.4672 13.7466 44.4672 13.2272C44.4672 12.7078 44.2784 12.266 43.9057 11.8946C43.5305 11.5233 43.044 11.3376 42.4437 11.3376H38.0747V15.1192ZM38.0747 21.761H42.9423C43.5426 21.761 44.0291 21.5848 44.4043 21.2275C44.7795 20.8726 44.9659 20.4378 44.9659 19.9184C44.9659 19.399 44.7795 18.9619 44.4043 18.5976C44.0291 18.2333 43.5426 18.0523 42.9423 18.0523H38.0747V21.761Z" fill="white"/>
<path d="M50.8066 25.0373V8.06372H63.4683V11.434H54.5536V14.9006H62.4686V18.198H54.5536V21.6647H63.4683V25.0349H50.8066V25.0373Z" fill="white"/>
<path d="M70.8627 25.0373V19.8244L64.9204 8.06372H68.9142L72.7096 15.7021L76.5049 8.06372H80.4988L74.6315 19.7257V25.0349H70.8627V25.0373Z" fill="white"/>
<path d="M94.7968 22.8539C93.0395 24.5508 90.9313 25.3992 88.4672 25.3992C86.0031 25.3992 83.8997 24.5555 82.1497 22.8657C80.3997 21.1782 79.5259 19.1358 79.5259 16.7432C79.5259 14.3507 80.3997 12.3059 82.1497 10.6091C83.8973 8.91216 86.0031 8.06372 88.4672 8.06372C90.9313 8.06372 93.0323 8.91216 94.7726 10.6091C96.5105 12.3059 97.3892 14.3507 97.4061 16.7432C97.4231 19.1193 96.5517 21.1547 94.7968 22.8516V22.8539ZM84.759 20.4778C85.749 21.4978 86.9859 22.0055 88.4672 22.0055C89.9486 22.0055 91.1854 21.4978 92.1754 20.4778C93.1654 19.4601 93.6616 18.2168 93.6616 16.7456C93.6616 15.2743 93.1654 14.0263 92.1754 12.9993C91.1854 11.9746 89.9486 11.4598 88.4672 11.4598C86.9859 11.4598 85.7708 11.9746 84.7735 12.9993C83.7739 14.0263 83.2752 15.2743 83.2752 16.7456C83.2752 18.2168 83.769 19.4601 84.759 20.4778Z" fill="white"/>
<path d="M99.2021 25.0373V8.06372H105.195L111.087 21.5448L111.063 8.06372H114.732V25.0373H108.916L102.874 11.1191V25.0373H99.2021Z" fill="white"/>
<path d="M169.544 20.2593C169.379 20.076 169.186 19.9374 168.965 19.8457C168.743 19.754 168.503 19.707 168.246 19.707C167.912 19.707 167.612 19.7728 167.341 19.9068C167.07 20.0408 166.826 20.2194 166.608 20.4427C166.421 20.1747 166.208 19.9867 165.966 19.8739C165.724 19.7611 165.47 19.707 165.204 19.707C165.08 19.707 164.952 19.7188 164.824 19.7423C164.696 19.7658 164.57 19.801 164.449 19.8457C164.328 19.8904 164.211 19.9421 164.103 20.0032C163.994 20.0643 163.897 20.1301 163.812 20.2006L163.773 19.8104H162.633V25.1737H163.919V21.1853C164.073 21.0678 164.233 20.9762 164.395 20.9127C164.558 20.8493 164.715 20.8164 164.865 20.8164C164.986 20.8164 165.095 20.8375 165.199 20.8822C165.301 20.9268 165.39 20.9926 165.465 21.0819C165.54 21.1712 165.601 21.2864 165.644 21.4274C165.688 21.5684 165.712 21.733 165.712 21.9257V25.1737H166.997V21.9116C166.997 21.7142 166.995 21.5684 166.988 21.4697C166.981 21.371 166.971 21.2958 166.959 21.2441C167.109 21.1031 167.269 20.9973 167.436 20.9268C167.603 20.854 167.762 20.8187 167.917 20.8187C168.038 20.8187 168.15 20.8399 168.256 20.8845C168.363 20.9292 168.455 20.995 168.532 21.0866C168.61 21.1783 168.672 21.2935 168.718 21.4345C168.764 21.5731 168.789 21.7377 168.789 21.9257V25.1737H170.074V21.9139C170.074 21.5449 170.028 21.2229 169.934 20.948C169.839 20.673 169.711 20.4427 169.546 20.257L169.544 20.2593Z" fill="white"/>
<path d="M157.87 17.9136L155.592 25.1759H156.977L157.596 23.2111H159.76L160.38 25.1759H161.765L159.48 17.9136H157.868H157.87ZM157.843 22.0406L158.676 19.2485L159.509 22.0406H157.843Z" fill="white"/>
<path d="M171.795 13.42C172.081 13.0839 172.296 12.6984 172.439 12.2613C172.582 11.8242 172.652 11.3682 172.652 10.8934C172.652 10.3317 172.57 9.82878 172.405 9.38223C172.24 8.93568 172.006 8.55494 171.698 8.24236C171.391 7.92977 171.016 7.6877 170.573 7.51848C170.13 7.34926 169.626 7.26465 169.067 7.26465H167.174V14.527H169.186C169.772 14.527 170.282 14.4259 170.713 14.2238C171.146 14.0216 171.505 13.7537 171.793 13.42H171.795ZM171.149 11.8171C171.062 12.1132 170.933 12.3741 170.759 12.6021C170.585 12.8301 170.369 13.0134 170.106 13.1497C169.844 13.2884 169.537 13.3565 169.186 13.3565H168.539V8.43508H169.106C169.442 8.43508 169.747 8.49383 170.016 8.61135C170.285 8.72886 170.512 8.89573 170.699 9.11195C170.885 9.32583 171.028 9.58435 171.127 9.88754C171.226 10.1907 171.277 10.5268 171.277 10.9005C171.277 11.2154 171.234 11.521 171.146 11.8171H171.149Z" fill="white"/>
<path d="M163.316 14.5082C163.529 14.5646 163.785 14.5928 164.088 14.5928L164.24 13.5023C164.032 13.4812 163.887 13.4271 163.807 13.3449C163.727 13.2626 163.686 13.1239 163.686 12.9312V7.26709H162.401V13.2203C162.401 13.4483 162.432 13.648 162.495 13.8173C162.558 13.9888 162.655 14.1322 162.791 14.2474C162.926 14.3625 163.1 14.4495 163.313 14.5059L163.316 14.5082Z" fill="white"/>
<path d="M132.089 0.352539C131.956 0.352539 131.823 0.352539 131.69 0.35724V6.28224C126.149 6.48907 121.725 10.9851 121.725 16.4988C121.725 22.0125 126.152 26.5086 131.69 26.7154V32.6404C131.823 32.6428 131.956 32.6451 132.089 32.6451C141.127 32.6451 148.457 25.4157 148.457 16.4988C148.457 7.58194 141.127 0.352539 132.089 0.352539ZM131.69 20.0101C129.903 19.8127 128.509 18.3156 128.509 16.5012C128.509 14.6868 129.903 13.1873 131.69 12.9922V20.0125V20.0101ZM131.69 12.2025C129.461 12.4023 127.713 14.2496 127.713 16.5012C127.713 18.7527 129.461 20.6 131.69 20.7998V25.9351C126.597 25.7283 122.519 21.5754 122.519 16.5035C122.519 11.4317 126.597 7.27876 131.69 7.07193V12.2073V12.2025ZM132.486 12.9899C134.275 13.185 135.669 14.6844 135.669 16.4988C135.669 18.3132 134.272 19.8127 132.486 20.0078V12.9875V12.9899ZM132.486 20.7975C134.718 20.6 136.465 18.7527 136.465 16.4988C136.465 14.2449 134.718 12.3976 132.486 12.2002V7.06488C137.579 7.26935 141.66 11.4223 141.66 16.4965C141.66 21.5707 137.579 25.7236 132.486 25.9281V20.7928V20.7975ZM143.1 27.3617C140.254 30.1703 136.497 31.7591 132.486 31.8578V26.7178C138.027 26.5133 142.456 22.0172 142.456 16.5012C142.456 10.9851 138.027 6.48907 132.486 6.28224V1.14223C136.497 1.24094 140.254 2.82736 143.1 5.63827C146.041 8.54085 147.66 12.3976 147.66 16.5012C147.66 20.6047 146.041 24.4615 143.1 27.3641V27.3617Z" fill="#D50037"/>
<path d="M132.089 33C131.953 33 131.818 33 131.682 32.9953L131.329 32.9882V27.0538C125.713 26.6684 121.364 22.0971 121.364 16.5035C121.364 10.9099 125.713 6.33865 131.329 5.95321V0.0141016L131.682 0.00470052C131.818 0.00235026 131.953 0 132.091 0C141.316 0 148.822 7.40097 148.822 16.5012C148.822 25.6014 141.316 33 132.091 33H132.089ZM132.053 32.2949H132.089C140.914 32.2949 148.093 25.2089 148.093 16.5012C148.093 7.79346 140.912 0.705078 132.089 0.705078H132.053V6.62068L131.704 6.63478C126.311 6.83691 122.088 11.1684 122.088 16.5012C122.088 21.8339 126.311 26.1654 131.704 26.3676L132.053 26.3817V32.2973V32.2949ZM132.123 32.2197V26.3793L132.471 26.3676C137.867 26.1678 142.091 21.8339 142.091 16.5012C142.091 11.1684 137.864 6.83691 132.471 6.63478L132.123 6.62068V0.780286L132.496 0.789687C136.596 0.890748 140.454 2.52418 143.361 5.38915C146.37 8.35752 148.026 12.3036 148.026 16.4988C148.026 20.694 146.368 24.6401 143.361 27.6085C140.457 30.4735 136.598 32.1092 132.496 32.208L132.123 32.2174V32.2197ZM132.849 27.0515V31.4911C136.623 31.3078 140.159 29.7637 142.843 27.1149C145.716 24.2805 147.299 20.5084 147.299 16.4988C147.299 12.4893 145.716 8.71946 142.843 5.8827C140.159 3.23396 136.623 1.68984 132.849 1.50652V5.94616C138.467 6.3316 142.819 10.9005 142.819 16.4988C142.819 22.0971 138.467 26.666 132.849 27.0515ZM132.123 26.2994V20.4755L132.452 20.4473C134.531 20.2639 136.102 18.5671 136.102 16.5012C136.102 14.4353 134.534 12.7384 132.452 12.5551L132.123 12.5269V6.70294L132.5 6.71704C137.84 6.93327 142.023 11.2319 142.023 16.5012C142.023 21.7705 137.84 26.0714 132.5 26.2853L132.123 26.2994ZM132.849 21.1077V25.5567C137.615 25.1736 141.297 21.2652 141.297 16.4988C141.297 11.7325 137.615 7.82402 132.849 7.44092V11.89C135.139 12.2496 136.828 14.1768 136.828 16.4988C136.828 18.8209 135.139 20.7481 132.849 21.1077ZM132.053 26.2994L131.675 26.283C126.338 26.0667 122.155 21.7681 122.155 16.4988C122.155 11.2295 126.335 6.93092 131.675 6.71469L132.053 6.69824V12.5222L131.724 12.5527C129.644 12.7384 128.078 14.4353 128.078 16.4988C128.078 18.5624 129.647 20.2592 131.724 20.4449L132.053 20.4755V26.2994ZM131.327 7.44092C126.561 7.82402 122.881 11.7325 122.881 16.4988C122.881 21.2652 126.561 25.1736 131.327 25.5567V21.1077C129.037 20.7481 127.35 18.8209 127.35 16.4988C127.35 14.1768 129.037 12.2519 131.327 11.89V7.44092ZM132.123 20.4026V12.595L132.527 12.6397C134.526 12.8583 136.034 14.5176 136.034 16.4988C136.034 18.4801 134.526 20.1417 132.527 20.358L132.123 20.4026ZM132.849 13.4082V19.5871C134.275 19.2486 135.306 17.9842 135.306 16.4965C135.306 15.0088 134.275 13.7467 132.849 13.4059V13.4082ZM132.053 20.4026L131.648 20.358C129.652 20.137 128.146 18.4777 128.146 16.4988C128.146 14.5199 129.652 12.8583 131.648 12.6397L132.053 12.595V20.4026ZM131.327 13.4082C129.901 13.749 128.872 15.0135 128.872 16.4965C128.872 17.9795 129.903 19.2439 131.327 19.5847V13.4059V13.4082Z" fill="#D50037"/>
<path d="M157.87 7.26465L155.592 14.527H156.977L157.596 12.5621H159.76L160.38 14.527H161.765L159.48 7.26465H157.868H157.87ZM157.843 11.3917L158.676 8.5996L159.509 11.3917H157.843Z" fill="white"/>
<path d="M183.868 19.8127H182.583V25.176H183.868V19.8127Z" fill="white"/>
<path d="M207.996 24.1137C207.899 24.1513 207.807 24.1701 207.723 24.1701C207.536 24.1701 207.391 24.1066 207.289 23.9797C207.188 23.8528 207.137 23.6648 207.137 23.4157V20.9244H208.442V19.8127H207.115V18.5906L205.869 18.9267V19.8127H205.116V20.9244H205.849V23.7165C205.849 23.9844 205.89 24.2147 205.973 24.4098C206.055 24.6049 206.164 24.7671 206.302 24.8963C206.44 25.0256 206.599 25.1219 206.781 25.1854C206.963 25.2489 207.154 25.2818 207.355 25.2818C207.594 25.2818 207.839 25.2395 208.088 25.1572C208.337 25.0749 208.567 24.948 208.78 24.7835L208.294 23.9421C208.192 24.022 208.091 24.0784 207.994 24.116L207.996 24.1137Z" fill="white"/>
<path d="M203.762 20.2358C203.562 20.0595 203.329 19.9279 203.065 19.8409C202.801 19.7563 202.521 19.7117 202.223 19.7117C201.889 19.7117 201.56 19.7634 201.231 19.8644C200.901 19.9655 200.604 20.1089 200.337 20.2945L200.831 21.1453C201.008 21.049 201.197 20.9714 201.395 20.9127C201.594 20.8539 201.809 20.8233 202.044 20.8233C202.194 20.8233 202.337 20.8398 202.467 20.875C202.598 20.9103 202.712 20.9644 202.811 21.0372C202.908 21.1101 202.985 21.2041 203.044 21.3145C203.102 21.425 203.131 21.559 203.131 21.7164V21.8081C203.034 21.794 202.925 21.7846 202.809 21.7775C202.69 21.7705 202.586 21.7681 202.492 21.7681C202.15 21.7681 201.831 21.8105 201.536 21.8974C201.24 21.982 200.984 22.1066 200.763 22.2688C200.543 22.4309 200.371 22.6283 200.243 22.8634C200.117 23.0984 200.054 23.3616 200.054 23.6554C200.054 23.8787 200.098 24.0902 200.187 24.2853C200.277 24.4827 200.4 24.6543 200.558 24.8C200.715 24.948 200.904 25.0632 201.124 25.1478C201.344 25.2324 201.584 25.2771 201.848 25.2771C202.177 25.2771 202.467 25.2042 202.724 25.0562C202.981 24.9104 203.196 24.7295 203.373 24.5133L203.547 25.1713H204.418V21.8716C204.418 21.5002 204.36 21.1759 204.242 20.9056C204.123 20.633 203.966 20.4097 203.765 20.2311L203.762 20.2358ZM203.128 23.4932C203.075 23.5943 203.01 23.686 202.932 23.7682C202.855 23.8505 202.768 23.9233 202.673 23.9821C202.579 24.0408 202.477 24.0879 202.373 24.1208C202.269 24.1537 202.165 24.1701 202.063 24.1701C201.962 24.1701 201.86 24.1537 201.77 24.1184C201.681 24.0832 201.606 24.0361 201.543 23.9727C201.48 23.9116 201.431 23.8411 201.395 23.7635C201.359 23.6836 201.342 23.6014 201.342 23.5144C201.342 23.3969 201.371 23.2841 201.429 23.176C201.487 23.0678 201.574 22.9762 201.688 22.8963C201.804 22.8164 201.947 22.7529 202.121 22.7059C202.296 22.6565 202.499 22.633 202.734 22.633C202.787 22.633 202.85 22.6354 202.922 22.6424C202.995 22.6495 203.063 22.6589 203.126 22.673V23.4956L203.128 23.4932Z" fill="white"/>
<path d="M175.215 20.4474C175.019 20.2076 174.789 20.0267 174.523 19.8974C174.256 19.7705 173.973 19.707 173.675 19.707C173.475 19.707 173.271 19.7399 173.066 19.8034C172.86 19.8668 172.652 19.9703 172.443 20.1113L172.405 19.8128H171.265V27.4088H172.55V25.0022C172.695 25.0938 172.855 25.1643 173.029 25.2113C173.203 25.2583 173.373 25.2818 173.542 25.2818C173.857 25.2818 174.155 25.216 174.435 25.0821C174.716 24.9481 174.961 24.7577 175.171 24.511C175.382 24.2642 175.549 23.9657 175.67 23.6202C175.791 23.2747 175.854 22.8893 175.854 22.4639C175.854 22.0385 175.796 21.6577 175.68 21.317C175.563 20.9785 175.409 20.6894 175.212 20.4497L175.215 20.4474ZM174.479 23.1878C174.423 23.3969 174.346 23.5756 174.242 23.7213C174.14 23.867 174.017 23.9798 173.876 24.055C173.734 24.1326 173.576 24.1702 173.404 24.1702C173.262 24.1702 173.116 24.142 172.969 24.0879C172.821 24.0339 172.681 23.954 172.552 23.8482V21.183C172.707 21.0561 172.86 20.9644 173.012 20.9057C173.162 20.8469 173.305 20.8164 173.438 20.8164C173.603 20.8164 173.753 20.8563 173.891 20.9339C174.029 21.0114 174.147 21.1242 174.247 21.2676C174.346 21.411 174.423 21.5872 174.479 21.7917C174.535 21.9962 174.561 22.2265 174.561 22.478C174.561 22.7295 174.532 22.9762 174.479 23.1854V23.1878Z" fill="white"/>
<path d="M198.66 20.3085C198.442 20.0994 198.198 19.949 197.924 19.8526C197.651 19.7562 197.373 19.7092 197.089 19.7092C196.76 19.7092 196.453 19.7727 196.167 19.8973C195.882 20.0218 195.63 20.2004 195.414 20.4331C195.199 20.6658 195.03 20.9478 194.904 21.2816C194.78 21.6153 194.717 21.989 194.717 22.405C194.717 22.8609 194.785 23.2675 194.918 23.6248C195.051 23.982 195.23 24.2828 195.458 24.5273C195.685 24.7717 195.949 24.9597 196.249 25.089C196.552 25.2182 196.874 25.2817 197.215 25.2817C197.557 25.2817 197.876 25.2276 198.21 25.1172C198.547 25.0067 198.868 24.8304 199.178 24.5837L198.498 23.7235C198.329 23.8762 198.15 23.9891 197.956 24.0619C197.762 24.1348 197.573 24.17 197.387 24.17C197.218 24.17 197.055 24.1395 196.901 24.0807C196.746 24.022 196.608 23.935 196.487 23.8198C196.366 23.707 196.269 23.5637 196.194 23.3921C196.119 23.2205 196.073 23.0254 196.061 22.8069H199.345C199.355 22.7364 199.362 22.6494 199.372 22.5483C199.382 22.4449 199.384 22.3533 199.384 22.2757C199.384 21.8198 199.319 21.4296 199.183 21.1053C199.05 20.7809 198.873 20.5154 198.658 20.3062L198.66 20.3085ZM198.121 21.9349H196.082C196.095 21.7775 196.131 21.6294 196.189 21.4907C196.247 21.3521 196.322 21.2345 196.412 21.1358C196.504 21.0371 196.608 20.9596 196.724 20.9032C196.842 20.8468 196.971 20.8186 197.114 20.8186C197.247 20.8186 197.375 20.8444 197.496 20.8938C197.617 20.9431 197.724 21.0136 197.816 21.1029C197.908 21.1922 197.978 21.3027 198.031 21.432C198.084 21.5612 198.113 21.7046 198.118 21.8621V21.9349H198.121Z" fill="white"/>
<path d="M212.675 19.8667C212.474 19.7609 212.256 19.7092 212.021 19.7092C211.821 19.7092 211.622 19.7492 211.421 19.8314C211.22 19.9114 211.022 20.0359 210.821 20.2028L210.782 19.815H209.642V25.1783H210.927V21.1899C211.061 21.063 211.203 20.969 211.356 20.9102C211.508 20.8515 211.663 20.8209 211.818 20.8209C211.951 20.8209 212.08 20.8444 212.205 20.8891C212.329 20.9361 212.443 21.0042 212.544 21.0959L213.183 20.3203C213.04 20.1229 212.871 19.9725 212.67 19.8667H212.675Z" fill="white"/>
<path d="M217.801 21.1076C217.668 20.7833 217.491 20.5177 217.276 20.3085C217.058 20.0994 216.814 19.949 216.54 19.8526C216.267 19.7562 215.988 19.7092 215.705 19.7092C215.376 19.7092 215.069 19.7727 214.783 19.8973C214.497 20.0218 214.246 20.2004 214.03 20.4331C213.815 20.6658 213.645 20.9478 213.522 21.2816C213.398 21.6153 213.335 21.989 213.335 22.405C213.335 22.8609 213.401 23.2675 213.536 23.6248C213.669 23.982 213.849 24.2828 214.076 24.5273C214.304 24.7717 214.567 24.9597 214.868 25.089C215.17 25.2182 215.492 25.2817 215.833 25.2817C216.175 25.2817 216.494 25.2276 216.828 25.1172C217.165 25.0067 217.487 24.8304 217.796 24.5837L217.116 23.7235C216.947 23.8762 216.768 23.9891 216.574 24.0619C216.38 24.1348 216.192 24.17 216.005 24.17C215.836 24.17 215.674 24.1395 215.519 24.0807C215.364 24.022 215.226 23.935 215.105 23.8198C214.986 23.707 214.887 23.5637 214.812 23.3921C214.737 23.2205 214.691 23.0254 214.679 22.8069H217.963C217.973 22.7364 217.98 22.6494 217.99 22.5483C218 22.4449 218.002 22.3533 218.002 22.2757C218.002 21.8198 217.937 21.4296 217.801 21.1053V21.1076ZM216.736 21.9349H214.698C214.71 21.7775 214.747 21.6294 214.805 21.4907C214.863 21.3521 214.935 21.2345 215.027 21.1358C215.117 21.0371 215.223 20.9596 215.34 20.9032C215.458 20.8468 215.587 20.8186 215.729 20.8186C215.862 20.8186 215.991 20.8444 216.112 20.8938C216.233 20.9431 216.339 21.0136 216.431 21.1029C216.521 21.1922 216.593 21.3027 216.647 21.432C216.7 21.5612 216.729 21.7046 216.734 21.8621V21.9349H216.736Z" fill="white"/>
<path d="M193.325 20.2591C193.161 20.0829 192.965 19.9489 192.737 19.8525C192.507 19.7562 192.256 19.7092 191.982 19.7092C191.709 19.7092 191.447 19.7491 191.22 19.8314C190.992 19.9136 190.791 20.0077 190.624 20.1181V17.9136H189.339V25.1759H190.624V21.2462C190.794 21.1099 190.963 21.0065 191.135 20.9313C191.307 20.8561 191.481 20.8185 191.658 20.8185C191.817 20.8185 191.953 20.849 192.067 20.9078C192.181 20.9666 192.273 21.0465 192.348 21.1499C192.42 21.2533 192.476 21.3732 192.51 21.5071C192.546 21.6434 192.563 21.7868 192.563 21.9396V25.1735H193.848V21.7092C193.848 21.4108 193.802 21.1381 193.713 20.8914C193.621 20.6446 193.495 20.4331 193.33 20.2568L193.325 20.2591Z" fill="white"/>
<path d="M183.348 14.5269V11.0697C183.348 10.7406 183.297 10.4516 183.198 10.2024C183.099 9.95331 182.963 9.74179 182.791 9.57257C182.619 9.401 182.423 9.27409 182.201 9.18713C181.978 9.10252 181.746 9.05786 181.501 9.05786C181.257 9.05786 181.015 9.10017 180.758 9.18242C180.501 9.26703 180.264 9.38925 180.042 9.55377L180.003 9.16362H178.863V14.5269H180.148V10.602C180.281 10.4751 180.443 10.3717 180.632 10.2894C180.821 10.2095 181.005 10.1672 181.182 10.1672C181.305 10.1672 181.421 10.193 181.528 10.2424C181.634 10.2917 181.729 10.367 181.809 10.4633C181.888 10.5597 181.951 10.6772 181.995 10.8182C182.038 10.9592 182.063 11.1167 182.063 11.2906V14.5246H183.348V14.5269Z" fill="white"/>
<path d="M180.831 20.2591C180.666 20.0829 180.47 19.9489 180.24 19.8525C180.01 19.7562 179.759 19.7092 179.485 19.7092C179.211 19.7092 178.95 19.7491 178.723 19.8314C178.495 19.9136 178.297 20.0077 178.127 20.1181V17.9136H176.842V25.1759H178.127V21.2462C178.297 21.1099 178.466 21.0065 178.635 20.9313C178.807 20.8561 178.982 20.8185 179.158 20.8185C179.318 20.8185 179.454 20.849 179.567 20.9078C179.681 20.9666 179.773 21.0465 179.848 21.1499C179.921 21.2533 179.976 21.3732 180.013 21.5071C180.049 21.6434 180.066 21.7868 180.066 21.9396V25.1735H181.351V21.7092C181.351 21.4108 181.305 21.1381 181.213 20.8914C181.121 20.6446 180.995 20.4331 180.831 20.2568V20.2591Z" fill="white"/>
<path d="M177.616 11.2295C177.616 10.8582 177.558 10.5362 177.439 10.2636C177.321 9.99094 177.163 9.76767 176.963 9.58905C176.762 9.41043 176.532 9.28117 176.265 9.19421C176.002 9.1096 175.721 9.06494 175.423 9.06494C175.089 9.06494 174.76 9.11665 174.431 9.21771C174.102 9.31877 173.804 9.46214 173.538 9.64781L174.031 10.4986C174.208 10.4022 174.397 10.3247 174.595 10.2659C174.794 10.2072 175.009 10.1766 175.244 10.1766C175.394 10.1766 175.537 10.1931 175.668 10.2283C175.798 10.2636 175.912 10.3176 176.011 10.3905C176.108 10.4633 176.186 10.5574 176.244 10.6678C176.302 10.7783 176.331 10.9122 176.331 11.0697V11.1614C176.234 11.1473 176.125 11.1379 176.009 11.1308C175.89 11.1238 175.786 11.1214 175.692 11.1214C175.351 11.1214 175.031 11.1637 174.736 11.2507C174.44 11.3353 174.184 11.4599 173.964 11.622C173.743 11.7842 173.571 11.9816 173.443 12.2166C173.317 12.4517 173.252 12.7149 173.252 13.0087C173.252 13.232 173.296 13.4435 173.385 13.6385C173.475 13.836 173.598 14.0075 173.755 14.1556C173.913 14.3013 174.102 14.4188 174.322 14.5034C174.542 14.5881 174.782 14.6327 175.046 14.6327C175.375 14.6327 175.665 14.5598 175.922 14.4118C176.178 14.2661 176.394 14.0851 176.57 13.8689L176.745 14.5269H177.619V11.2272L177.616 11.2295ZM176.331 12.8465C176.278 12.9476 176.212 13.0392 176.135 13.1215C176.057 13.2037 175.97 13.2766 175.876 13.3354C175.779 13.3941 175.68 13.4411 175.576 13.474C175.472 13.5069 175.367 13.5234 175.266 13.5234C175.164 13.5234 175.062 13.5069 174.973 13.4717C174.883 13.4364 174.808 13.3894 174.745 13.3283C174.682 13.2672 174.634 13.1967 174.598 13.1168C174.561 13.0369 174.544 12.9546 174.544 12.8677C174.544 12.7501 174.574 12.6373 174.632 12.5292C174.69 12.4211 174.777 12.3295 174.891 12.2495C175.007 12.1696 175.15 12.1062 175.324 12.0592C175.498 12.0098 175.701 11.9863 175.936 11.9863C175.99 11.9863 176.052 11.9887 176.128 11.9957C176.2 12.0028 176.268 12.0122 176.331 12.0263V12.8489V12.8465Z" fill="white"/>
<path d="M183.822 17.9465H182.629V19.1875H183.822V17.9465Z" fill="white"/>
<path d="M187.727 24.1137C187.63 24.1513 187.538 24.1701 187.453 24.1701C187.267 24.1701 187.121 24.1066 187.02 23.9797C186.918 23.8528 186.867 23.6648 186.867 23.4157V20.9244H188.172V19.8127H186.846V18.5906L185.599 18.9267V19.8127H184.846V20.9244H185.58V23.7165C185.58 23.9844 185.621 24.2147 185.703 24.4098C185.785 24.6049 185.894 24.7671 186.032 24.8963C186.17 25.0256 186.33 25.1219 186.511 25.1854C186.693 25.2489 186.884 25.2818 187.085 25.2818C187.325 25.2818 187.569 25.2395 187.819 25.1572C188.068 25.0749 188.298 24.948 188.511 24.7835L188.024 23.9421C187.923 24.022 187.821 24.0784 187.724 24.116L187.727 24.1137Z" fill="white"/>
<path d="M187.983 9.58905C187.782 9.41043 187.552 9.28117 187.286 9.19421C187.02 9.10725 186.741 9.06494 186.444 9.06494C186.11 9.06494 185.78 9.11665 185.451 9.21771C185.122 9.31877 184.824 9.46214 184.558 9.64781L185.052 10.4986C185.229 10.4022 185.417 10.3247 185.613 10.2659C185.809 10.2072 186.027 10.1766 186.262 10.1766C186.412 10.1766 186.555 10.1931 186.686 10.2283C186.816 10.2636 186.93 10.3176 187.029 10.3905C187.126 10.4633 187.206 10.5574 187.262 10.6678C187.32 10.7783 187.349 10.9122 187.349 11.0697V11.1614C187.252 11.1473 187.143 11.1379 187.025 11.1308C186.906 11.1238 186.802 11.1214 186.707 11.1214C186.366 11.1214 186.047 11.1637 185.751 11.2507C185.456 11.3353 185.199 11.4599 184.979 11.622C184.759 11.7842 184.587 11.9816 184.459 12.2166C184.333 12.4517 184.27 12.7149 184.27 13.0087C184.27 13.232 184.314 13.4435 184.403 13.6385C184.493 13.836 184.616 14.0075 184.773 14.1556C184.931 14.3013 185.12 14.4188 185.34 14.5034C185.56 14.5881 185.8 14.6327 186.064 14.6327C186.393 14.6327 186.683 14.5598 186.94 14.4118C187.194 14.2661 187.412 14.0851 187.589 13.8689L187.763 14.5269H188.634V11.2272C188.634 10.8558 188.576 10.5339 188.457 10.2612C188.339 9.98859 188.182 9.76532 187.981 9.5867L187.983 9.58905ZM187.351 12.8442C187.298 12.9452 187.233 13.0369 187.155 13.1191C187.078 13.2014 186.991 13.2743 186.896 13.333C186.799 13.3918 186.7 13.4388 186.596 13.4717C186.492 13.5046 186.388 13.521 186.286 13.521C186.185 13.521 186.083 13.5046 185.993 13.4693C185.904 13.4341 185.829 13.3871 185.766 13.326C185.703 13.2649 185.655 13.1943 185.618 13.1144C185.582 13.0345 185.565 12.9523 185.565 12.8653C185.565 12.7478 185.594 12.635 185.652 12.5269C185.71 12.4188 185.797 12.3271 185.911 12.2472C186.027 12.1673 186.17 12.1038 186.344 12.0568C186.519 12.0075 186.722 11.984 186.957 11.984C187.01 11.984 187.073 11.9863 187.148 11.9934C187.221 12.0004 187.288 12.0098 187.351 12.0239V12.8465V12.8442Z" fill="white"/>
</g>
<defs>
<clipPath id="clip0_705_8718">
<rect width="218" height="33" fill="white"/>
</clipPath>
</defs>
</svg>
