<svg width="130" height="130" viewBox="0 0 130 130" fill="none" xmlns="http://www.w3.org/2000/svg">
<mask id="mask0_817_2751" style="mask-type:alpha" maskUnits="userSpaceOnUse" x="5" y="5" width="120" height="120">
<circle cx="65" cy="65" r="60" fill="#D9D9D9"/>
</mask>
<g mask="url(#mask0_817_2751)">
<path d="M65 125C98.1371 125 125 98.1371 125 65C125 31.8629 98.1371 5 65 5C31.8629 5 5 31.8629 5 65C5 98.1371 31.8629 125 65 125Z" fill="url(#paint0_linear_817_2751)"/>
<g opacity="0.35" filter="url(#filter0_f_817_2751)">
<path d="M75.1663 52.2154C87.1079 52.2154 96.7886 43.4148 96.7886 32.5588C96.7886 21.7027 87.1079 12.9021 75.1663 12.9021C63.2246 12.9021 53.5439 21.7027 53.5439 32.5588C53.5439 43.4148 63.2246 52.2154 75.1663 52.2154Z" fill="#0B0FEE"/>
</g>
<g opacity="0.4" filter="url(#filter1_f_817_2751)">
<path d="M100.72 88.7767C110.056 88.7767 117.625 77.688 117.625 64.0093C117.625 50.3307 110.056 39.2419 100.72 39.2419C91.3839 39.2419 83.8154 50.3307 83.8154 64.0093C83.8154 77.688 91.3839 88.7767 100.72 88.7767Z" fill="#BE27FF"/>
</g>
<g opacity="0.05" filter="url(#filter2_d_817_2751)">
<path opacity="0.1" d="M5.44434 64.9999C5.44434 32.1065 32.1067 5.44409 65.0002 5.44409C97.8936 5.44409 124.556 32.1065 124.556 64.9999C124.556 97.8934 97.8936 124.556 65.0002 124.556C32.1067 124.556 5.44434 97.8934 5.44434 64.9999Z" fill="white"/>
<path opacity="0.75" d="M5.91992 65.0001C5.91992 32.374 32.374 5.91992 64.9962 5.91992C97.6183 5.91992 124.076 32.374 124.076 65.0001C124.076 97.6262 97.6223 124.076 64.9962 124.076C32.37 124.076 5.91992 97.6223 5.91992 65.0001Z" fill="white"/>
<path opacity="0.7" d="M6.39893 64.9996C6.39893 32.6409 32.6407 6.39941 64.9995 6.39941C97.3583 6.39941 123.6 32.6409 123.6 64.9996C123.6 97.3584 97.3583 123.6 64.9995 123.6C32.6407 123.6 6.39893 97.3584 6.39893 64.9996Z" fill="white"/>
<path opacity="0.65" d="M6.875 64.9996C6.875 32.9081 32.9084 6.875 64.9999 6.875C97.0913 6.875 123.125 32.9081 123.125 64.9996C123.125 97.091 97.0913 123.124 64.9999 123.124C32.9084 123.124 6.875 97.091 6.875 64.9996Z" fill="white"/>
<path opacity="0.6" d="M7.35059 64.9997C7.35059 33.1717 33.1716 7.35083 64.9957 7.35083C96.8199 7.35083 122.641 33.1717 122.641 64.9997C122.641 96.8278 96.8199 122.645 64.9957 122.645C33.1716 122.645 7.35059 96.8238 7.35059 64.9997Z" fill="white"/>
<path opacity="0.55" d="M7.83008 65.0002C7.83008 33.4395 33.4389 7.83081 64.9996 7.83081C96.5603 7.83081 122.169 33.4395 122.169 65.0002C122.169 96.5609 96.5603 122.17 64.9996 122.17C33.4389 122.17 7.83008 96.5609 7.83008 65.0002Z" fill="white"/>
<path opacity="0.5" d="M8.30566 65.0001C8.30566 33.7067 33.7061 8.3064 64.9995 8.3064C96.2929 8.3064 121.693 33.7067 121.693 65.0001C121.693 96.2935 96.2929 121.694 64.9995 121.694C33.7061 121.694 8.30566 96.2935 8.30566 65.0001Z" fill="white"/>
<path opacity="0.45" d="M8.78174 65.0003C8.78174 33.9742 33.9699 8.78223 64.9959 8.78223C96.022 8.78223 121.21 33.9703 121.21 65.0003C121.21 96.0303 96.022 121.214 64.9959 121.214C33.9699 121.214 8.78174 96.0263 8.78174 65.0003Z" fill="white"/>
<path opacity="0.4" d="M9.26123 65.0003C9.26123 34.2376 34.241 9.26172 64.9998 9.26172C95.7585 9.26172 120.738 34.2415 120.738 65.0003C120.738 95.759 95.7585 120.739 64.9998 120.739C34.241 120.739 9.26123 95.759 9.26123 65.0003Z" fill="white"/>
<path opacity="0.35" d="M9.73682 65.0002C9.73682 34.5048 34.5043 9.7373 64.9997 9.7373C95.495 9.7373 120.262 34.5048 120.262 65.0002C120.262 95.4955 95.495 120.263 64.9997 120.263C34.5043 120.263 9.73682 95.4955 9.73682 65.0002Z" fill="white"/>
<path opacity="0.3" d="M10.2129 64.9995C10.2129 34.7715 34.7681 10.2166 64.9962 10.2166C95.2242 10.2166 119.779 34.7715 119.779 64.9995C119.779 95.2275 95.2242 119.783 64.9962 119.783C34.7681 119.783 10.2129 95.2275 10.2129 64.9995Z" fill="white"/>
<path opacity="0.25" d="M10.6924 64.9994C10.6924 35.0387 35.0392 10.6921 64.9998 10.6921C94.9605 10.6921 119.307 35.0387 119.307 64.9994C119.307 94.9601 94.9605 119.307 64.9998 119.307C35.0392 119.307 10.6924 94.9601 10.6924 64.9994Z" fill="white"/>
<path opacity="0.2" d="M11.1685 64.9996C11.1685 35.3023 35.303 11.168 65.0003 11.168C94.6975 11.168 118.832 35.3023 118.832 64.9996C118.832 94.6968 94.6975 118.831 65.0003 118.831C35.303 118.831 11.1685 94.6968 11.1685 64.9996Z" fill="white"/>
<path opacity="0.15" d="M11.6479 65C11.6479 35.5701 35.5741 11.6479 65.0001 11.6479C94.4261 11.6479 118.352 35.574 118.352 65C118.352 94.4261 94.4261 118.352 65.0001 118.352C35.5741 118.352 11.6479 94.4261 11.6479 65Z" fill="white"/>
<path opacity="0.1" d="M12.123 64.9999C12.123 35.8373 35.8369 12.1235 64.9995 12.1235C94.1622 12.1235 117.876 35.8373 117.876 64.9999C117.876 94.1626 94.1622 117.876 64.9995 117.876C35.8369 117.876 12.123 94.1626 12.123 64.9999Z" fill="white"/>
<path opacity="0.05" d="M12.5991 64.9998C12.5991 36.1046 36.1007 12.5991 65 12.5991C93.8992 12.5991 117.401 36.1006 117.401 64.9998C117.401 93.8991 93.8992 117.401 65 117.401C36.1007 117.401 12.5991 93.8991 12.5991 64.9998Z" fill="white"/>
</g>
<path d="M58.4156 66.9419C55.9663 66.9419 53.6233 66.305 51.4453 65.0549L51.4689 65.0116L51.4453 64.9684C53.6272 63.7104 55.9781 63.0735 58.4313 63.0735C60.8844 63.0735 63.2983 63.7261 65.4448 64.9605L65.5195 65.0038L65.4448 65.047C63.2943 66.2854 60.8648 66.9419 58.4195 66.9419H58.4156Z" fill="url(#paint1_linear_817_2751)"/>
<path d="M65.3692 65.0041C65.3692 59.9287 67.9877 55.3841 72.3835 52.8484L72.4071 52.8916H72.4621C72.4621 57.9709 69.8357 62.5116 65.4399 65.0473L65.3652 65.0906V65.0041H65.3692Z" fill="url(#paint2_linear_817_2751)"/>
<path d="M72.3835 77.1478C67.9956 74.6121 65.3731 70.0754 65.3691 65.0079V64.9214L65.4438 64.9646C69.8435 67.4964 72.4739 72.041 72.4778 77.1164H72.4306L72.3874 77.1478H72.3835Z" fill="url(#paint3_linear_817_2751)"/>
<path d="M65.4165 65.0034C65.4165 60.2937 67.7439 55.58 72.4064 52.891H72.4104V48.7159C72.4104 45.3271 69.6624 42.583 66.2736 42.583C62.8887 42.583 60.1486 45.331 60.1486 48.7159V52.9342C60.1486 54.2276 58.7451 55.0375 57.6246 54.3927L53.9842 52.2895C51.0475 50.5951 47.2931 51.6015 45.5948 54.5382C43.9004 57.4749 44.9068 61.2293 47.8435 62.9277L51.4407 65.0034C51.4407 65.0034 51.4564 65.0113 51.4603 65.0152C56.1111 62.334 61.3398 62.6643 65.4126 65.0073L65.4165 65.0034Z" fill="url(#paint4_linear_817_2751)"/>
<path d="M65.4209 65.0039C61.3519 67.3509 56.1233 67.6851 51.4686 65.0118C51.4686 65.0118 51.4646 65.0118 51.4607 65.0157L47.8439 67.1032C44.9111 68.7976 43.9047 72.5521 45.603 75.4848C47.2974 78.4137 51.044 79.4162 53.9768 77.7218L57.629 75.6146C58.7494 74.9659 60.1529 75.7758 60.1529 77.0692V81.2718C60.1529 84.6606 62.9009 87.4125 66.2936 87.4125C69.6864 87.4125 72.4344 84.6645 72.4344 81.2718V77.1124L72.4147 77.1006C67.7561 74.4116 65.4287 69.7097 65.4248 65.0039H65.4209Z" fill="url(#paint5_linear_817_2751)"/>
<path d="M82.1556 68.5731L78.5034 66.4659C77.383 65.8172 77.383 64.2014 78.5034 63.5528L82.1438 61.4495C85.0805 59.7551 86.087 55.9967 84.3926 53.06C82.6981 50.1233 78.9398 49.1169 76.0031 50.8113L72.4138 52.8831V52.891C72.4138 58.273 69.4967 62.6486 65.416 65.0034C69.5007 67.3583 72.4216 71.7299 72.4256 77.1159L76.0227 79.1916C78.9555 80.886 82.7099 79.8796 84.4004 76.9429C86.0909 74.0101 85.0845 70.2636 82.1517 68.5731H82.1556Z" fill="url(#paint6_linear_817_2751)"/>
<g opacity="0.3">
<path d="M66.2819 42.5835C69.6668 42.5835 72.4148 45.3276 72.4148 48.7164V52.8876L76.0041 50.8118C76.9712 50.2536 78.0248 49.9902 79.0666 49.9902C81.1895 49.9902 83.2535 51.0909 84.3896 53.0605C86.084 55.9972 85.0776 59.7517 82.1409 61.45L78.5005 63.5533C77.38 64.2019 77.38 65.8177 78.5005 66.4664L82.1527 68.5736C85.0855 70.264 86.0879 74.0106 84.4014 76.9434C83.2652 78.913 81.2052 80.0177 79.0823 80.0177C78.0405 80.0177 76.9869 79.7543 76.0237 79.196L72.4266 77.1203V81.2796C72.4266 84.6724 69.6786 87.4204 66.2858 87.4204C62.8931 87.4204 60.1451 84.6724 60.1451 81.2796V77.077C60.1451 76.0942 59.3392 75.3944 58.4625 75.3944C58.1833 75.3944 57.8964 75.4652 57.6251 75.6224L53.9729 77.7296C53.0058 78.2879 51.9522 78.5513 50.9143 78.5513C48.7993 78.5513 46.7392 77.4544 45.6031 75.4888C43.9047 72.556 44.9112 68.8016 47.8439 67.1072L51.4608 65.0196C51.4608 65.0196 51.4647 65.0196 51.4686 65.0157C51.4686 65.0157 51.4568 65.0079 51.449 65.0039L47.8518 62.9282C44.9151 61.2338 43.9087 57.4754 45.6031 54.5387C46.7392 52.5691 48.8032 51.4683 50.9261 51.4683C51.9679 51.4683 53.0254 51.7357 53.9886 52.2939L57.629 54.3972C57.9003 54.5544 58.1873 54.6252 58.4664 54.6252C59.3431 54.6252 60.149 53.9215 60.149 52.9426V48.7243C60.149 45.3394 62.8892 42.5953 66.274 42.5914H66.2819M66.2819 42.1943H66.278C62.6847 42.1943 59.7598 45.1232 59.7598 48.7164V52.9347C59.7598 53.7328 59.0876 54.2281 58.4664 54.2281C58.2423 54.2281 58.0261 54.1692 57.8256 54.0512L54.1852 51.948C53.1945 51.374 52.0662 51.0713 50.9261 51.0713C48.5988 51.0713 46.4287 52.3214 45.265 54.3382C44.3922 55.8479 44.1603 57.6091 44.6124 59.2956C45.0645 60.9822 46.1456 62.3896 47.6552 63.2623L50.6863 65.0118L47.6474 66.7652C46.1377 67.6379 45.0566 69.0453 44.6085 70.7279C44.1564 72.4106 44.3922 74.1718 45.265 75.6814C46.4287 77.6903 48.5909 78.9366 50.9143 78.9366C52.0544 78.9366 53.1788 78.6338 54.1695 78.0599L57.8217 75.9527C58.0222 75.8347 58.2384 75.7758 58.4664 75.7758C59.0876 75.7758 59.7598 76.2711 59.7598 77.0692V81.2718C59.7598 84.8729 62.6887 87.8017 66.2897 87.8017C69.8908 87.8017 72.8197 84.8729 72.8197 81.2718V77.7886L75.8311 79.5263C76.8218 80.1002 77.9501 80.4029 79.0862 80.4029C81.4136 80.4029 83.5837 79.1488 84.7434 77.136C86.5361 74.0224 85.4629 70.0282 82.3532 68.2315L78.701 66.1244C78.296 65.8924 78.0562 65.4718 78.0562 65.0079C78.0562 64.544 78.296 64.1233 78.701 63.8914L82.3414 61.7881C85.4589 59.9875 86.5322 55.9854 84.7316 52.8679C83.568 50.8511 81.3979 49.601 79.0705 49.601C77.9304 49.601 76.8021 49.9037 75.8114 50.4777L72.8079 52.2114V48.7164C72.8079 45.1192 69.883 42.1943 66.2858 42.1943H66.2819Z" fill="white"/>
</g>
<g opacity="0.15">
<path d="M65 5.44424C97.8935 5.44424 124.556 32.1066 124.556 65C124.556 97.8935 97.8935 124.556 65 124.556C32.1066 124.556 5.44424 97.8935 5.44424 65C5.44424 32.1066 32.1066 5.44424 65 5.44424ZM65 5C48.972 5 33.9071 11.243 22.5731 22.5731C11.239 33.9071 5 48.972 5 65C5 81.0281 11.243 96.0929 22.5731 107.427C33.9032 118.761 48.972 125 65 125C81.0281 125 96.0929 118.757 107.427 107.427C118.761 96.0929 125 81.0281 125 65C125 48.972 118.757 33.9071 107.427 22.5731C96.0929 11.239 81.0281 5 65 5Z" fill="white"/>
</g>
<path d="M29.2173 64.9996C29.2173 45.2368 45.2375 29.2168 65.0003 29.2168C84.7631 29.2168 100.783 45.2368 100.783 64.9996C100.783 84.7624 84.7631 100.783 65.0003 100.783C45.2375 100.783 29.2173 84.7624 29.2173 64.9996Z" stroke="url(#paint7_linear_817_2751)" stroke-width="1.52" stroke-miterlimit="10"/>
<path d="M20.6816 89.0553L25.447 86.3899L25.8716 87.1526L21.8022 89.4288L22.274 90.2701L21.5781 90.6593L20.6816 89.0553Z" fill="white"/>
<path d="M21.2525 81.3581C22.2158 80.9532 23.238 81.4014 23.643 82.3724C24.0519 83.3474 23.6705 84.3499 22.7505 84.7587L22.4084 83.941C22.892 83.713 23.0847 83.2019 22.8724 82.6948C22.6601 82.1876 22.1175 81.9636 21.5985 82.1837C21.0638 82.4078 20.8436 82.9778 21.0756 83.5361L21.6339 84.8727L21.5552 85.0182L19.031 85.7612L17.938 83.1548L18.6811 82.8442L19.495 84.7902L20.6155 84.4599L20.3442 83.8113C19.9157 82.7852 20.3128 81.7552 21.2486 81.3621L21.2525 81.3581Z" fill="white"/>
<path d="M16.361 75.9209L16.7896 77.5524L21.4959 76.3101L21.7358 77.2222L17.0294 78.4645L17.458 80.096L16.6087 80.3201L15.5078 76.1489L16.3571 75.9248L16.361 75.9209Z" fill="white"/>
<path d="M14.3647 68.5499L20.0737 67.8855L20.1838 68.8212L17.691 69.1121L17.9938 71.7225L20.4865 71.4316L20.5966 72.3672L14.8877 73.0316L14.7776 72.096L17.1131 71.8247L16.8103 69.2143L14.4748 69.4856L14.3647 68.5499Z" fill="white"/>
<path d="M17.9623 55.5922C19.7041 55.8556 20.7971 57.208 20.5652 58.8788C20.3332 60.5535 18.9138 61.6229 17.2113 61.387C15.5128 61.155 14.4276 59.7555 14.6596 58.0847C14.8522 56.6969 15.8863 55.6551 17.1602 55.5686L17.0265 56.5318C16.2598 56.6733 15.6858 57.3338 15.5678 58.1908C15.4106 59.3427 16.1419 60.2705 17.345 60.4356C18.556 60.6007 19.5036 59.9245 19.6648 58.753C19.7906 57.8448 19.3777 57.035 18.6346 56.7166L18.3555 58.7451L17.5495 58.635L17.9702 55.5922H17.9623Z" fill="white"/>
<path d="M21.6063 50.116L22.4477 50.3676L21.5002 53.5598L15.9878 51.9204L16.2552 51.0162L20.9222 52.404L21.6024 50.116H21.6063Z" fill="white"/>
<path d="M24.3551 46.0583C23.6159 47.6387 21.9135 48.2638 20.3683 47.5443C18.8231 46.8249 18.2097 45.1187 18.9489 43.5344C19.6841 41.954 21.3866 41.3289 22.9318 42.0523C24.477 42.7717 25.0903 44.4779 24.3551 46.0583ZM22.5268 42.925C21.4495 42.4218 20.2739 42.8464 19.7706 43.9236C19.2674 45.0008 19.7077 46.1802 20.7732 46.6795C21.8427 47.1787 23.0301 46.7502 23.5294 45.677C24.0288 44.6037 23.6002 43.4282 22.5229 42.925H22.5268Z" fill="white"/>
<path d="M26.2652 36.7059C26.7606 36.4189 27.3622 36.4661 27.8694 36.816C28.6164 37.327 28.758 38.3688 28.1957 39.1866L26.8589 41.1326L22.1172 37.8813L23.4265 35.9707C23.9691 35.1766 24.8891 34.9525 25.589 35.4321C26.0018 35.7152 26.2731 36.2105 26.2613 36.7059H26.2652ZM25.1722 36.2892C24.8183 36.0454 24.3662 36.1398 24.1106 36.5132L23.3596 37.6101L24.5942 38.4553L25.3452 37.3585C25.6047 36.9811 25.5221 36.529 25.1722 36.2892ZM27.2403 37.5511C26.855 37.2877 26.3675 37.3899 26.0844 37.8027L25.3059 38.9389L26.6466 39.8588L27.4251 38.7227C27.7082 38.3099 27.6335 37.8184 27.2403 37.5511Z" fill="white"/>
<path d="M32.1941 32.4323L30.4405 34.2997L31.0185 35.5106L30.3344 36.2418L27.7236 30.624L28.3291 29.9753L34.1482 32.1729L33.4484 32.9198L32.1941 32.4245V32.4323ZM30.0474 33.4859L31.3527 32.0943L28.9268 31.1351L30.0474 33.4859Z" fill="white"/>
<path d="M37.9527 27.935L38.5031 28.6229L35.8963 30.6987L32.3105 26.2052L33.0497 25.6155L36.0851 29.421L37.9527 27.931V27.935Z" fill="white"/>
<path d="M45.9999 23.2293L46.401 24.0274L43.3381 25.5685L40.751 20.4341L43.7313 18.9324L44.1284 19.7226L41.9895 20.7998L42.6658 22.1403L44.612 21.1575L45.0012 21.928L43.055 22.9109L43.7785 24.3458L45.996 23.2293H45.9999Z" fill="white"/>
<path d="M51.4616 16.0706L51.1588 22.231L50.3214 22.5101L46.3267 17.7846L47.3135 17.4544L50.3056 21.0909L50.4786 16.3969L51.4577 16.0706H51.4616Z" fill="white"/>
<path d="M58.7658 19.5377L58.9231 20.4144L55.5496 21.0238L54.5312 15.3666L57.8182 14.7729L57.9755 15.6418L55.6204 16.0664L55.8877 17.5445L58.0345 17.1593L58.1878 18.0084L56.0411 18.3937L56.3281 19.9741L58.7737 19.5338L58.7658 19.5377Z" fill="white"/>
<path d="M66.0266 14.2463L66.18 19.9939L65.3897 20.0136L62.2953 15.9919L62.4054 20.0962L61.4815 20.1197L61.3281 14.3721L62.1813 14.3486L65.2127 18.3074L65.1026 14.2739L66.0266 14.2503V14.2463Z" fill="white"/>
<path d="M73.414 15.8386L71.743 15.6263L71.1296 20.454L70.1939 20.3361L70.8072 15.5084L69.1362 15.2961L69.2463 14.4233L73.5241 14.9698L73.414 15.8425V15.8386Z" fill="white"/>
<path d="M78.6539 21.1931L78.4219 22.054L75.1113 21.1655L76.6015 15.6145L79.8256 16.4794L79.5975 17.3325L77.2856 16.7113L76.8964 18.162L79.0038 18.7281L78.7797 19.5616L76.6723 18.9954L76.2555 20.5483L78.6539 21.1931Z" fill="white"/>
<path d="M83.7965 24.1414L83.3876 21.531L81.229 23.0525L80.2461 22.6357L83.1556 20.5954L82.617 17.3953L83.592 17.8081L83.9656 20.159L85.9118 18.7909L86.879 19.1997L84.2054 21.0711L84.7755 24.5503L83.8004 24.1375L83.7965 24.1414Z" fill="white"/>
<path d="M93.1491 28.3403L91.0731 26.8385L89.9447 27.5658L89.1348 26.9801L94.3758 23.6777L95.0954 24.1967L93.6485 30.247L92.8189 29.6455L93.1491 28.3403ZM91.832 26.3432L93.3772 27.4636L94.022 24.9358L91.832 26.3432Z" fill="white"/>
<path d="M104.522 32.9636L99.124 35.633L98.5461 35.0276L100.225 31.4146L96.5647 32.9518L95.9868 32.3464L98.8763 27.0508L99.5683 27.7741L97.3982 31.6427L101.518 29.9364L101.758 30.188L99.8906 34.257L103.838 32.2442L104.522 32.9597V32.9636Z" fill="white"/>
<path d="M104.365 40.7591L102.961 38.6126L101.648 38.8878L101.102 38.0504L107.176 36.8396L107.66 37.5826L104.149 42.7169L103.59 41.8599L104.365 40.7591ZM103.85 38.4239L104.896 40.02L106.398 37.8893L103.85 38.4239Z" fill="white"/>
<path d="M107.958 45.7281L107.51 44.7335L105.567 45.6062L105.182 44.7453L110.427 42.3904L111.343 44.4307C111.799 45.4411 111.445 46.5026 110.474 46.9389C109.759 47.2613 109 47.0923 108.473 46.5576L106.955 48.6962L106.523 47.7291L107.958 45.7281ZM108.32 44.3718L108.827 45.5001C109.082 46.0701 109.601 46.2785 110.093 46.0583C110.58 45.8382 110.773 45.3114 110.518 44.7413L110.01 43.613L108.32 44.3718Z" fill="white"/>
<path d="M111.83 55.0303C110.218 55.4548 108.736 54.5782 108.304 52.9466L107.789 50.9888L113.348 49.5225L113.863 51.4803C114.296 53.1157 113.439 54.6057 111.83 55.0303ZM111.587 54.0985C112.707 53.8037 113.305 52.8012 113.01 51.6768L112.739 50.6547L108.882 51.6729L109.149 52.695C109.444 53.8194 110.466 54.3934 111.583 54.0985H111.587Z" fill="white"/>
<path d="M111.24 57.6993L111.346 58.6506C110.709 58.7214 110.414 59.2875 110.489 59.9559C110.556 60.5652 110.937 61.0488 111.46 60.9898C112.03 60.9269 112.101 60.2979 112.188 59.5902C112.302 58.6939 112.431 57.6639 113.607 57.5302C114.637 57.4123 115.333 58.1278 115.471 59.3426C115.612 60.5809 115.019 61.3908 113.941 61.5127L113.835 60.5849C114.405 60.522 114.661 60.0148 114.594 59.4173C114.531 58.8472 114.216 58.4069 113.753 58.458C113.226 58.517 113.147 59.1224 113.061 59.8183C112.939 60.7303 112.805 61.8075 111.578 61.9451C110.434 62.0748 109.722 61.2217 109.593 60.062C109.447 58.7804 110.068 57.8251 111.236 57.6953L111.24 57.6993Z" fill="white"/>
<path d="M110.356 71.6356L109.522 71.5452L109.915 67.8301L110.155 67.8537C112.498 70.5034 112.911 70.8375 113.536 70.9044C114.012 70.9555 114.37 70.6606 114.421 70.1731C114.476 69.6621 114.181 69.2886 113.701 69.2375L113.58 69.2257L113.674 68.3451L113.8 68.3569C114.775 68.4591 115.365 69.2218 115.255 70.2518C115.148 71.2621 114.401 71.8951 113.446 71.7929C112.73 71.7182 112.18 71.3722 110.572 69.607L110.356 71.6317V71.6356Z" fill="white"/>
<path d="M111.803 74.4236C113.497 74.8482 114.347 75.9097 114.024 77.2031C113.702 78.4886 112.451 79.0272 110.761 78.6066C109.07 78.1859 108.213 77.1126 108.531 75.831C108.854 74.5455 110.112 74.003 111.803 74.4236ZM110.973 77.7338C112.196 78.0404 113.022 77.7574 113.21 76.9986C113.403 76.2281 112.809 75.5951 111.586 75.2924C110.36 74.9858 109.538 75.2571 109.345 76.0355C109.153 76.7981 109.75 77.4311 110.973 77.7377V77.7338Z" fill="white"/>
<path d="M106.806 83.7722L106.028 83.4577L107.424 79.9902L107.644 80.0807C109.169 83.269 109.476 83.7053 110.062 83.9412C110.506 84.1221 110.931 83.9373 111.112 83.4773C111.304 83.0016 111.123 82.5613 110.675 82.3805L110.561 82.3333L110.891 81.5117L111.009 81.5588C111.918 81.9244 112.275 82.8169 111.89 83.78C111.509 84.7236 110.62 85.1246 109.728 84.7668C109.059 84.4995 108.627 84.0159 107.561 81.8773L106.802 83.7643L106.806 83.7722Z" fill="white"/>
<path d="M104.765 89.4918C103.853 88.9807 103.578 87.8996 104.097 86.9836C104.616 86.0597 105.638 85.7492 106.527 86.2209L106.094 86.9915C105.615 86.7477 105.096 86.9168 104.828 87.3925C104.557 87.8721 104.714 88.4343 105.206 88.7134C105.709 88.9964 106.299 88.8195 106.594 88.2927L107.305 87.0308L107.467 87.0033L109.605 88.5365L108.221 91.0014L107.518 90.6083L108.552 88.7724L107.604 88.0922L107.258 88.7055C106.712 89.6766 105.654 89.995 104.769 89.4957L104.765 89.4918Z" fill="white"/>
<path d="M48.5479 105.815L41.5462 112.144L39.667 111.024L40.4061 106.397L36.7224 109.27L34.8433 108.15L37.0291 98.9546L39.321 100.319L37.9215 105.536L42.4032 102.206L43.1423 102.646L42.3836 108.197L46.2756 104.458L48.5479 105.811V105.815Z" fill="white"/>
<path d="M51.2956 106.294L53.7058 107.018L51.1187 115.659L48.7085 114.936L51.2956 106.294Z" fill="white"/>
<path d="M65.2362 108.661L64.4657 117.648L62.4175 117.471L59.2645 112.29L58.8478 117.165L56.4497 116.96L57.2203 107.973L59.3864 108.158L62.4332 113.167L62.8381 108.453L65.2362 108.657V108.661Z" fill="white"/>
<path d="M76.6131 107.105L78.1895 115.986L76.1649 116.343L71.7815 112.149L72.6346 116.968L70.264 117.389L68.6875 108.508L70.8301 108.127L75.068 112.18L74.2425 107.521L76.6131 107.101V107.105Z" fill="white"/>
<path d="M88.0891 109.856L88.9579 111.83L83.5759 114.196L79.9434 105.941L85.2271 103.617L86.092 105.583L83.0727 106.912L83.6074 108.126L86.32 106.935L87.1416 108.803L84.429 109.994L84.9715 111.228L88.0891 109.856Z" fill="white"/>
<path d="M94.6027 104.97L93.8794 105.508L95.5266 107.722L93.5334 109.208L88.1436 101.974L91.2768 99.6388C92.8376 98.4791 94.7482 98.6835 95.8726 100.193C96.533 101.082 96.6431 102.131 96.246 103.091L99.6427 104.651L97.4176 106.306L94.5949 104.966L94.6027 104.97ZM92.6292 103.83L93.5413 103.153C94.0995 102.737 94.1703 102.163 93.8322 101.711C93.4941 101.259 92.928 101.168 92.3697 101.581L91.4577 102.257L92.6292 103.83Z" fill="white"/>
<path d="M20.6816 89.0553L25.447 86.3899L25.8716 87.1526L21.8022 89.4288L22.274 90.2701L21.5781 90.6593L20.6816 89.0553Z" fill="white"/>
<path d="M21.2525 81.3581C22.2158 80.9532 23.238 81.4014 23.643 82.3724C24.0519 83.3474 23.6705 84.3499 22.7505 84.7587L22.4084 83.941C22.892 83.713 23.0847 83.2019 22.8724 82.6948C22.6601 82.1876 22.1175 81.9636 21.5985 82.1837C21.0638 82.4078 20.8436 82.9778 21.0756 83.5361L21.6339 84.8727L21.5552 85.0182L19.031 85.7612L17.938 83.1548L18.6811 82.8442L19.495 84.7902L20.6155 84.4599L20.3442 83.8113C19.9157 82.7852 20.3128 81.7552 21.2486 81.3621L21.2525 81.3581Z" fill="white"/>
<path d="M16.361 75.9209L16.7896 77.5524L21.4959 76.3101L21.7358 77.2222L17.0294 78.4645L17.458 80.096L16.6087 80.3201L15.5078 76.1489L16.3571 75.9248L16.361 75.9209Z" fill="white"/>
<path d="M14.3647 68.5499L20.0737 67.8855L20.1838 68.8212L17.691 69.1121L17.9938 71.7225L20.4865 71.4316L20.5966 72.3672L14.8877 73.0316L14.7776 72.096L17.1131 71.8247L16.8103 69.2143L14.4748 69.4856L14.3647 68.5499Z" fill="white"/>
<path d="M17.9623 55.5922C19.7041 55.8556 20.7971 57.208 20.5652 58.8788C20.3332 60.5535 18.9138 61.6229 17.2113 61.387C15.5128 61.155 14.4276 59.7555 14.6596 58.0847C14.8522 56.6969 15.8863 55.6551 17.1602 55.5686L17.0265 56.5318C16.2598 56.6733 15.6858 57.3338 15.5678 58.1908C15.4106 59.3427 16.1419 60.2705 17.345 60.4356C18.556 60.6007 19.5036 59.9245 19.6648 58.753C19.7906 57.8448 19.3777 57.035 18.6346 56.7166L18.3555 58.7451L17.5495 58.635L17.9702 55.5922H17.9623Z" fill="white"/>
<path d="M21.6063 50.116L22.4477 50.3676L21.5002 53.5598L15.9878 51.9204L16.2552 51.0162L20.9222 52.404L21.6024 50.116H21.6063Z" fill="white"/>
<path d="M24.3551 46.0583C23.6159 47.6387 21.9135 48.2638 20.3683 47.5443C18.8231 46.8249 18.2097 45.1187 18.9489 43.5344C19.6841 41.954 21.3866 41.3289 22.9318 42.0523C24.477 42.7717 25.0903 44.4779 24.3551 46.0583ZM22.5268 42.925C21.4495 42.4218 20.2739 42.8464 19.7706 43.9236C19.2674 45.0008 19.7077 46.1802 20.7732 46.6795C21.8427 47.1787 23.0301 46.7502 23.5294 45.677C24.0288 44.6037 23.6002 43.4282 22.5229 42.925H22.5268Z" fill="white"/>
<path d="M26.2652 36.7059C26.7606 36.4189 27.3622 36.4661 27.8694 36.816C28.6164 37.327 28.758 38.3688 28.1957 39.1866L26.8589 41.1326L22.1172 37.8813L23.4265 35.9707C23.9691 35.1766 24.8891 34.9525 25.589 35.4321C26.0018 35.7152 26.2731 36.2105 26.2613 36.7059H26.2652ZM25.1722 36.2892C24.8183 36.0454 24.3662 36.1398 24.1106 36.5132L23.3596 37.6101L24.5942 38.4553L25.3452 37.3585C25.6047 36.9811 25.5221 36.529 25.1722 36.2892ZM27.2403 37.5511C26.855 37.2877 26.3675 37.3899 26.0844 37.8027L25.3059 38.9389L26.6466 39.8588L27.4251 38.7227C27.7082 38.3099 27.6335 37.8184 27.2403 37.5511Z" fill="white"/>
<path d="M32.1941 32.4323L30.4405 34.2997L31.0185 35.5106L30.3344 36.2418L27.7236 30.624L28.3291 29.9753L34.1482 32.1729L33.4484 32.9198L32.1941 32.4245V32.4323ZM30.0474 33.4859L31.3527 32.0943L28.9268 31.1351L30.0474 33.4859Z" fill="white"/>
<path d="M37.9527 27.935L38.5031 28.6229L35.8963 30.6987L32.3105 26.2052L33.0497 25.6155L36.0851 29.421L37.9527 27.931V27.935Z" fill="white"/>
<path d="M45.9999 23.2293L46.401 24.0274L43.3381 25.5685L40.751 20.4341L43.7313 18.9324L44.1284 19.7226L41.9895 20.7998L42.6658 22.1403L44.612 21.1575L45.0012 21.928L43.055 22.9109L43.7785 24.3458L45.996 23.2293H45.9999Z" fill="white"/>
<path d="M51.4616 16.0706L51.1588 22.231L50.3214 22.5101L46.3267 17.7846L47.3135 17.4544L50.3056 21.0909L50.4786 16.3969L51.4577 16.0706H51.4616Z" fill="white"/>
<path d="M58.7658 19.5377L58.9231 20.4144L55.5496 21.0238L54.5312 15.3666L57.8182 14.7729L57.9755 15.6418L55.6204 16.0664L55.8877 17.5445L58.0345 17.1593L58.1878 18.0084L56.0411 18.3937L56.3281 19.9741L58.7737 19.5338L58.7658 19.5377Z" fill="white"/>
<path d="M66.0266 14.2463L66.18 19.9939L65.3897 20.0136L62.2953 15.9919L62.4054 20.0962L61.4815 20.1197L61.3281 14.3721L62.1813 14.3486L65.2127 18.3074L65.1026 14.2739L66.0266 14.2503V14.2463Z" fill="white"/>
<path d="M73.414 15.8386L71.743 15.6263L71.1296 20.454L70.1939 20.3361L70.8072 15.5084L69.1362 15.2961L69.2463 14.4233L73.5241 14.9698L73.414 15.8425V15.8386Z" fill="white"/>
<path d="M78.6539 21.1931L78.4219 22.054L75.1113 21.1655L76.6015 15.6145L79.8256 16.4794L79.5975 17.3325L77.2856 16.7113L76.8964 18.162L79.0038 18.7281L78.7797 19.5616L76.6723 18.9954L76.2555 20.5483L78.6539 21.1931Z" fill="white"/>
<path d="M83.7965 24.1414L83.3876 21.531L81.229 23.0525L80.2461 22.6357L83.1556 20.5954L82.617 17.3953L83.592 17.8081L83.9656 20.159L85.9118 18.7909L86.879 19.1997L84.2054 21.0711L84.7755 24.5503L83.8004 24.1375L83.7965 24.1414Z" fill="white"/>
<path d="M93.1491 28.3403L91.0731 26.8385L89.9447 27.5658L89.1348 26.9801L94.3758 23.6777L95.0954 24.1967L93.6485 30.247L92.8189 29.6455L93.1491 28.3403ZM91.832 26.3432L93.3772 27.4636L94.022 24.9358L91.832 26.3432Z" fill="white"/>
<path d="M104.522 32.9636L99.124 35.633L98.5461 35.0276L100.225 31.4146L96.5647 32.9518L95.9868 32.3464L98.8763 27.0508L99.5683 27.7741L97.3982 31.6427L101.518 29.9364L101.758 30.188L99.8906 34.257L103.838 32.2442L104.522 32.9597V32.9636Z" fill="white"/>
<path d="M104.365 40.7591L102.961 38.6126L101.648 38.8878L101.102 38.0504L107.176 36.8396L107.66 37.5826L104.149 42.7169L103.59 41.8599L104.365 40.7591ZM103.85 38.4239L104.896 40.02L106.398 37.8893L103.85 38.4239Z" fill="white"/>
<path d="M107.958 45.7281L107.51 44.7335L105.567 45.6062L105.182 44.7453L110.427 42.3904L111.343 44.4307C111.799 45.4411 111.445 46.5026 110.474 46.9389C109.759 47.2613 109 47.0923 108.473 46.5576L106.955 48.6962L106.523 47.7291L107.958 45.7281ZM108.32 44.3718L108.827 45.5001C109.082 46.0701 109.601 46.2785 110.093 46.0583C110.58 45.8382 110.773 45.3114 110.518 44.7413L110.01 43.613L108.32 44.3718Z" fill="white"/>
<path d="M111.83 55.0303C110.218 55.4548 108.736 54.5782 108.304 52.9466L107.789 50.9888L113.348 49.5225L113.863 51.4803C114.296 53.1157 113.439 54.6057 111.83 55.0303ZM111.587 54.0985C112.707 53.8037 113.305 52.8012 113.01 51.6768L112.739 50.6547L108.882 51.6729L109.149 52.695C109.444 53.8194 110.466 54.3934 111.583 54.0985H111.587Z" fill="white"/>
<path d="M111.24 57.6993L111.346 58.6506C110.709 58.7214 110.414 59.2875 110.489 59.9559C110.556 60.5652 110.937 61.0488 111.46 60.9898C112.03 60.9269 112.101 60.2979 112.188 59.5902C112.302 58.6939 112.431 57.6639 113.607 57.5302C114.637 57.4123 115.333 58.1278 115.471 59.3426C115.612 60.5809 115.019 61.3908 113.941 61.5127L113.835 60.5849C114.405 60.522 114.661 60.0148 114.594 59.4173C114.531 58.8472 114.216 58.4069 113.753 58.458C113.226 58.517 113.147 59.1224 113.061 59.8183C112.939 60.7303 112.805 61.8075 111.578 61.9451C110.434 62.0748 109.722 61.2217 109.593 60.062C109.447 58.7804 110.068 57.8251 111.236 57.6953L111.24 57.6993Z" fill="white"/>
<path d="M110.356 71.6356L109.522 71.5452L109.915 67.8301L110.155 67.8537C112.498 70.5034 112.911 70.8375 113.536 70.9044C114.012 70.9555 114.37 70.6606 114.421 70.1731C114.476 69.6621 114.181 69.2886 113.701 69.2375L113.58 69.2257L113.674 68.3451L113.8 68.3569C114.775 68.4591 115.365 69.2218 115.255 70.2518C115.148 71.2621 114.401 71.8951 113.446 71.7929C112.73 71.7182 112.18 71.3722 110.572 69.607L110.356 71.6317V71.6356Z" fill="white"/>
<path d="M111.803 74.4236C113.497 74.8482 114.347 75.9097 114.024 77.2031C113.702 78.4886 112.451 79.0272 110.761 78.6066C109.07 78.1859 108.213 77.1126 108.531 75.831C108.854 74.5455 110.112 74.003 111.803 74.4236ZM110.973 77.7338C112.196 78.0404 113.022 77.7574 113.21 76.9986C113.403 76.2281 112.809 75.5951 111.586 75.2924C110.36 74.9858 109.538 75.2571 109.345 76.0355C109.153 76.7981 109.75 77.4311 110.973 77.7377V77.7338Z" fill="white"/>
<path d="M106.806 83.7722L106.028 83.4577L107.424 79.9902L107.644 80.0807C109.169 83.269 109.476 83.7053 110.062 83.9412C110.506 84.1221 110.931 83.9373 111.112 83.4773C111.304 83.0016 111.123 82.5613 110.675 82.3805L110.561 82.3333L110.891 81.5117L111.009 81.5588C111.918 81.9244 112.275 82.8169 111.89 83.78C111.509 84.7236 110.62 85.1246 109.728 84.7668C109.059 84.4995 108.627 84.0159 107.561 81.8773L106.802 83.7643L106.806 83.7722Z" fill="white"/>
<path d="M104.765 89.4918C103.853 88.9807 103.578 87.8996 104.097 86.9836C104.616 86.0597 105.638 85.7492 106.527 86.2209L106.094 86.9915C105.615 86.7477 105.096 86.9168 104.828 87.3925C104.557 87.8721 104.714 88.4343 105.206 88.7134C105.709 88.9964 106.299 88.8195 106.594 88.2927L107.305 87.0308L107.467 87.0033L109.605 88.5365L108.221 91.0014L107.518 90.6083L108.552 88.7724L107.604 88.0922L107.258 88.7055C106.712 89.6766 105.654 89.995 104.769 89.4957L104.765 89.4918Z" fill="white"/>
<path d="M48.5479 105.815L41.5462 112.144L39.667 111.024L40.4061 106.397L36.7224 109.27L34.8433 108.15L37.0291 98.9546L39.321 100.319L37.9215 105.536L42.4032 102.206L43.1423 102.646L42.3836 108.197L46.2756 104.458L48.5479 105.811V105.815Z" fill="white"/>
<path d="M51.2956 106.294L53.7058 107.018L51.1187 115.659L48.7085 114.936L51.2956 106.294Z" fill="white"/>
<path d="M65.2362 108.661L64.4657 117.648L62.4175 117.471L59.2645 112.29L58.8478 117.165L56.4497 116.96L57.2203 107.973L59.3864 108.158L62.4332 113.167L62.8381 108.453L65.2362 108.657V108.661Z" fill="white"/>
<path d="M76.6131 107.105L78.1895 115.986L76.1649 116.343L71.7815 112.149L72.6346 116.968L70.264 117.389L68.6875 108.508L70.8301 108.127L75.068 112.18L74.2425 107.521L76.6131 107.101V107.105Z" fill="white"/>
<path d="M88.0891 109.856L88.9579 111.83L83.5759 114.196L79.9434 105.941L85.2271 103.617L86.092 105.583L83.0727 106.912L83.6074 108.126L86.32 106.935L87.1416 108.803L84.429 109.994L84.9715 111.228L88.0891 109.856Z" fill="white"/>
<path d="M94.6027 104.97L93.8794 105.508L95.5266 107.722L93.5334 109.208L88.1436 101.974L91.2768 99.6388C92.8376 98.4791 94.7482 98.6835 95.8726 100.193C96.533 101.082 96.6431 102.131 96.246 103.091L99.6427 104.651L97.4176 106.306L94.5949 104.966L94.6027 104.97ZM92.6292 103.83L93.5413 103.153C94.0995 102.737 94.1703 102.163 93.8322 101.711C93.4941 101.259 92.928 101.168 92.3697 101.581L91.4577 102.257L92.6292 103.83Z" fill="white"/>
</g>
<defs>
<filter id="filter0_f_817_2751" x="-6.45605" y="-47.0979" width="163.245" height="159.313" filterUnits="userSpaceOnUse" color-interpolation-filters="sRGB">
<feFlood flood-opacity="0" result="BackgroundImageFix"/>
<feBlend mode="normal" in="SourceGraphic" in2="BackgroundImageFix" result="shape"/>
<feGaussianBlur stdDeviation="30" result="effect1_foregroundBlur_817_2751"/>
</filter>
<filter id="filter1_f_817_2751" x="23.8154" y="-20.7581" width="153.81" height="169.535" filterUnits="userSpaceOnUse" color-interpolation-filters="sRGB">
<feFlood flood-opacity="0" result="BackgroundImageFix"/>
<feBlend mode="normal" in="SourceGraphic" in2="BackgroundImageFix" result="shape"/>
<feGaussianBlur stdDeviation="30" result="effect1_foregroundBlur_817_2751"/>
</filter>
<filter id="filter2_d_817_2751" x="-35.3257" y="-35.3259" width="228.871" height="228.872" filterUnits="userSpaceOnUse" color-interpolation-filters="sRGB">
<feFlood flood-opacity="0" result="BackgroundImageFix"/>
<feColorMatrix in="SourceAlpha" type="matrix" values="0 0 0 0 0 0 0 0 0 0 0 0 0 0 0 0 0 0 127 0" result="hardAlpha"/>
<feOffset dx="14.11" dy="14.11"/>
<feGaussianBlur stdDeviation="27.44"/>
<feColorMatrix type="matrix" values="0 0 0 0 0.121569 0 0 0 0 0.0588235 0 0 0 0 0.298039 0 0 0 0.2 0"/>
<feBlend mode="normal" in2="BackgroundImageFix" result="effect1_dropShadow_817_2751"/>
<feBlend mode="normal" in="SourceGraphic" in2="effect1_dropShadow_817_2751" result="shape"/>
</filter>
<linearGradient id="paint0_linear_817_2751" x1="111.531" y1="24.8925" x2="20.914" y2="109.809" gradientUnits="userSpaceOnUse">
<stop offset="0.0288462" stop-color="#A531ED"/>
<stop offset="0.235577" stop-color="#6600CA"/>
<stop offset="0.495192" stop-color="#5500A8"/>
<stop offset="0.620192" stop-color="#3E007B"/>
<stop offset="1" stop-color="#320064"/>
</linearGradient>
<linearGradient id="paint1_linear_817_2751" x1="51.4414" y1="64.9723" x2="65.4094" y2="65.0431" gradientUnits="userSpaceOnUse">
<stop stop-color="#E8A6DF"/>
<stop offset="1" stop-color="#F2D6A2"/>
</linearGradient>
<linearGradient id="paint2_linear_817_2751" x1="65.5264" y1="64.7092" x2="72.6575" y2="52.5764" gradientUnits="userSpaceOnUse">
<stop stop-color="#B5C0BF"/>
<stop offset="1" stop-color="#ECE484"/>
</linearGradient>
<linearGradient id="paint3_linear_817_2751" x1="65.2355" y1="64.6973" x2="72.4372" y2="77.121" gradientUnits="userSpaceOnUse">
<stop stop-color="#F59884"/>
<stop offset="1" stop-color="#F8CF99"/>
</linearGradient>
<linearGradient id="paint4_linear_817_2751" x1="48.9403" y1="63.2775" x2="73.35" y2="48.5744" gradientUnits="userSpaceOnUse">
<stop stop-color="#0A80E3"/>
<stop offset="1" stop-color="#ADEF38"/>
</linearGradient>
<linearGradient id="paint5_linear_817_2751" x1="48.7284" y1="65.6172" x2="72.3518" y2="82.8679" gradientUnits="userSpaceOnUse">
<stop stop-color="#E64134"/>
<stop offset="1" stop-color="#FFD212"/>
</linearGradient>
<linearGradient id="paint6_linear_817_2751" x1="75.323" y1="78.2127" x2="75.323" y2="50.7681" gradientUnits="userSpaceOnUse">
<stop stop-color="#452ADB"/>
<stop offset="1" stop-color="#ED3196"/>
</linearGradient>
<linearGradient id="paint7_linear_817_2751" x1="65.0003" y1="101.082" x2="65.0003" y2="28.918" gradientUnits="userSpaceOnUse">
<stop stop-color="#00FFF8"/>
<stop offset="0.48" stop-color="#FF00FF"/>
<stop offset="1" stop-color="#FFFF00"/>
</linearGradient>
</defs>
</svg>
