<?xml version="1.0" encoding="UTF-8"?>
<svg xmlns="http://www.w3.org/2000/svg" width="170" height="69" viewBox="0 0 170 69" fill="none">
  <g clip-path="url(#clip0_359_10487)">
    <path d="M169.94 50.3956C169.868 50.287 169.752 50.2312 169.586 50.2312C169.489 50.2312 169.367 50.2498 169.213 50.287C168.865 50.3894 168.395 50.5104 167.853 50.5104C166.498 50.5104 165.298 49.7751 164.175 48.2609C163.2 46.9422 162.645 45.9586 162.316 45.3319L162.304 45.3164C162.137 44.9657 161.837 44.7827 161.432 44.7827C161.197 44.7827 160.99 44.8509 160.88 44.8944C160.655 45.0154 160.432 45.124 160.225 45.2295L160.2 45.245C159.639 45.5304 159.322 46.2379 159.209 46.5295C158.83 47.6869 158.592 47.6869 158.463 47.6869C158.335 47.6869 158.128 47.6217 158.097 47.1873C158.046 46.4892 157.949 45.0898 157.927 44.8137C157.905 44.5375 157.717 44.3576 157.444 44.3576C156.905 44.3576 156.09 45.0557 155.927 45.1984C155.488 45.6546 155.056 46.4613 154.767 47.0074L154.755 47.0322C154.679 47.1749 154.617 47.2959 154.563 47.3859C153.786 48.8659 152.585 50.6283 151.269 50.6283C151.203 50.6283 151.137 50.6252 151.077 50.6159C149.09 50.3553 148.547 46.1076 148.428 44.8106C148.375 44.3266 148.061 44.1528 147.789 44.1528C147.663 44.1528 147.538 44.1838 147.372 44.2552C147.228 44.3421 147.021 44.5282 146.726 44.7889C146.46 45.0278 146.199 45.3226 145.923 45.639C144.955 46.7436 143.751 48.1182 141.114 48.4067H141.03C140.08 48.4067 139.337 48.084 138.82 47.4418C138.233 46.7126 138.08 45.7414 138.052 45.0526V44.8416C138.023 44.4972 137.826 44.2893 137.515 44.2893C137.359 44.2893 137.183 44.3421 136.989 44.4445C136.788 44.5748 136.628 44.6834 136.493 44.7827C136.161 45.0371 135.935 45.4684 135.873 45.5987C135.6 46.2875 134.603 48.5308 133.318 48.5308C133.177 48.5308 133.036 48.5029 132.904 48.4471C132.882 48.4378 132.866 48.4285 132.847 48.4129C132.785 48.3664 132.227 47.9351 132.227 47.0477C132.227 45.8562 133.258 44.5034 135.29 43.0296C135.562 42.831 135.703 42.6231 135.71 42.4059C135.713 42.2911 135.681 42.1732 135.609 42.0336C135.597 42.0119 135.584 41.9933 135.581 41.9933C135.544 41.9374 135.424 41.804 135.167 41.804C135.067 41.804 134.951 41.8257 134.826 41.8691C134.23 42.1081 133.346 42.53 132.515 43.1785C130.537 44.7206 129.716 46.5947 130.136 48.596C130.355 49.6448 130.926 50.8952 132.387 50.8952C133.716 50.8952 135.192 49.5734 135.813 48.7418C135.882 48.6456 135.954 48.5402 136.045 48.3943C136.058 48.3726 136.07 48.3509 136.076 48.3354L136.127 48.2578C136.305 47.9537 136.465 47.6217 136.609 47.2711C136.819 47.9599 137.18 48.5464 137.685 49.0149C138.305 49.5424 139.296 50.2529 140.716 50.3119C142.77 50.3925 144.158 49.1111 144.983 48.354C145.13 48.2175 145.259 48.0996 145.372 48.0065C145.506 47.8948 145.669 47.7427 145.826 47.5907L145.845 47.5721C146.547 46.9081 146.735 46.8026 146.782 46.7995C146.908 46.7995 146.92 46.7995 146.967 47.2928C146.992 47.569 147.033 47.9848 147.168 48.475C147.347 49.1328 148.344 52.4311 150.453 52.6762C150.529 52.6855 150.604 52.6886 150.679 52.6886C152.723 52.6886 154.883 49.7037 154.905 49.6727C154.999 49.5206 155.256 49.1607 155.585 49.1607C155.736 49.1607 156.009 49.2383 156.147 49.7471C156.457 50.8983 157.075 51.5344 158.084 51.7484C158.178 51.7671 158.266 51.7795 158.35 51.7795C159.197 51.7795 159.535 50.7307 159.836 49.561L159.858 49.4772C160.078 48.6208 160.269 47.8824 160.72 47.8824C160.902 47.8824 161.056 48.0065 161.181 48.2547C161.36 48.6084 163.755 51.8291 166.705 52.2511C166.859 52.2728 167.012 52.2852 167.163 52.2852C168.743 52.2852 169.68 51.1434 169.931 50.7897C169.947 50.768 169.959 50.7431 169.965 50.7183C169.981 50.678 169.987 50.6345 169.991 50.5818C169.991 50.5166 169.969 50.4515 169.931 50.3956H169.94ZM146.597 40.7025C146.597 40.7832 146.632 40.8576 146.688 40.9104C146.745 40.9631 146.82 41.0128 146.911 41.0562C146.98 41.0903 147.061 41.1338 147.155 41.1834L147.19 41.202C147.494 41.3665 147.914 41.593 148.24 41.593C148.651 41.593 148.748 41.1586 148.789 40.9724C148.971 40.1285 149.062 39.2007 149.03 38.4871C149.005 38.0899 148.757 37.8293 148.394 37.8293C148.293 37.8293 148.19 37.8479 148.08 37.8883L147.801 37.9875C147.613 38.0527 147.224 38.1892 146.945 38.3164C146.519 38.4964 146.51 38.9711 146.513 39.0549C146.513 39.0673 146.513 39.0828 146.513 39.0952C146.528 39.4707 146.557 39.9702 146.597 40.5815L146.604 40.6932L146.597 40.7025ZM17.6123 40.9942C17.4994 40.9693 17.3677 40.96 17.211 40.96C17.0197 40.96 16.8191 40.9786 16.6655 40.9942L15.8159 41.5371L15.7971 41.5527C15.5306 41.8629 15.3237 42.2167 15.1827 42.6014C15.0165 43.0575 15.0416 43.4454 15.2516 43.6967C15.4366 43.917 15.7313 43.9977 16.0228 44.0504C16.4962 44.1373 16.9821 44.1962 17.4649 44.2242C17.4931 44.2242 17.5276 44.2273 17.5652 44.2273C17.6279 44.2273 17.722 44.2211 17.8098 44.1807C17.9383 44.1187 18.0135 43.9946 18.0762 43.8735C18.3427 43.3492 18.4932 42.7627 18.512 42.1794C18.5183 41.9964 18.512 41.7574 18.4117 41.5464C18.28 41.2703 17.9822 41.0624 17.6154 40.9879L17.6123 40.9942ZM73.4398 45.1178C73.6498 44.6524 73.6122 42.8434 73.1514 42.4835L73.0855 42.4338L73.026 42.4897C68.8439 46.5451 63.3922 49.4927 57.6772 50.7959L60.8936 48.3354C61.1727 48.1213 62.0473 47.3766 61.6022 46.7064C61.4579 46.4861 61.1946 46.362 60.8811 46.362C60.7432 46.362 60.6021 46.3868 60.4767 46.4365C60.1193 46.573 59.8497 46.8429 59.5864 47.1067L59.5613 47.1315C57.6584 49.0397 55.9592 49.9985 54.2099 50.1505C54.0469 50.1629 53.8807 50.1722 53.7208 50.1722C51.7928 50.1722 49.9683 49.1917 48.2033 48.2423L48.197 48.2547V48.2423C46.4164 47.2835 44.5699 46.2906 42.5886 46.2906C42.4287 46.2906 42.2688 46.2968 42.112 46.3092C41.4443 46.362 40.9991 46.5792 40.7891 46.9546C40.6668 47.1718 40.6825 47.4728 40.8298 47.7179C40.9521 47.9227 41.1433 48.0437 41.344 48.0437C41.4004 48.0437 41.4568 48.0344 41.5101 48.0158C41.902 47.8762 42.3284 47.8048 42.7767 47.8048C43.8112 47.8048 44.9994 48.1771 46.3066 48.9063C46.6483 49.0987 46.9932 49.3034 47.3286 49.5051C48.4102 50.1536 49.5262 50.8269 50.774 51.1093C50.7081 51.162 50.6015 51.1961 50.4511 51.2148C49.799 51.2954 49.1093 51.3358 48.3945 51.3358C45.8301 51.3358 43.225 50.8021 40.7076 50.287L40.6825 50.2808C39.4473 50.0264 38.1683 49.7658 36.9111 49.5703C35.8421 49.4058 34.7574 49.2817 33.6821 49.2042C34.0646 49.0428 34.5254 48.807 34.8295 48.4222C35.0552 48.1368 35.1681 47.7365 35.1242 47.3828C35.0866 47.1036 34.9612 46.874 34.7574 46.7219L34.701 46.6785L34.6445 46.7219C31.4845 49.1576 27.7382 50.8455 23.8101 51.6026L23.7192 51.6212L23.7349 51.7112C23.8822 52.4931 24.7506 52.9151 25.4904 52.9151C25.5312 52.9151 25.5719 52.9151 25.6127 52.912C26.2836 52.8717 26.9012 52.58 27.4968 52.3007L27.5313 52.2852C27.6254 52.2418 27.7194 52.1984 27.8134 52.1549C29.1458 51.5499 30.5597 51.1651 32.0174 51.0162C32.5096 50.9634 33.0238 50.9386 33.5473 50.9386C35.8829 50.9386 38.2466 51.4506 40.532 51.947C42.3158 52.3318 44.1592 52.732 45.9931 52.8934C46.7079 52.9554 47.4634 52.9865 48.3036 52.9865C49.5764 52.9865 50.8617 52.9151 52.1095 52.8468H52.1157C53.5829 52.7662 55.1002 52.6824 56.5987 52.4683C63.3515 51.5095 68.3737 49.5455 72.4021 46.2906C72.8316 45.9431 73.2329 45.5925 73.4492 45.1178H73.4398ZM73.9916 28.583C71.5212 26.501 67.7686 25.3095 63.6932 25.3095C61.5269 25.3095 59.3857 25.6415 57.4985 26.2745C57.3919 26.3117 57.2916 26.3427 57.2007 26.3738C57.3762 26.2435 57.5957 26.0759 57.8747 25.8618C58.1631 25.6384 58.4358 25.4305 58.5581 25.3499C61.6805 23.2617 64.6587 20.0689 66.5241 16.8016C68.126 13.9967 69.6747 9.80794 67.9724 5.765C66.4331 2.10059 62.4329 0 57.0063 0C52.6612 0 45.4288 1.34041 35.6477 7.72907C27.5344 13.0286 21.1642 19.9882 16.7157 28.4185C13.5744 34.3697 11.4426 40.9135 10.3736 47.8762C9.67138 47.9196 9.11336 47.932 8.49577 47.932C5.65862 47.932 2.87477 47.5442 0.219448 46.784L0 46.7219L0.112859 46.9205C0.902871 48.323 2.71488 48.7822 4.00649 49.0025C5.55517 49.2693 7.17594 49.4027 8.8218 49.4027C9.26383 49.4027 9.71214 49.3903 10.1604 49.3686C10.1416 49.5175 10.1228 49.6665 10.104 49.8123C9.55539 54.2679 9.64003 57.4638 9.68079 58.3357L9.72468 60.5418C9.72468 60.5418 9.75289 61.4292 9.90023 62.6517C9.9692 63.2164 10.057 63.9828 10.1416 64.7461C10.2451 65.6738 10.3548 66.6357 10.4269 67.188C10.5523 67.7465 10.6902 68.2057 10.8345 68.5563C10.8658 68.6339 10.9034 68.7052 10.9442 68.7766L11.0037 68.8883L11.057 68.9038C11.1668 68.9348 11.2922 68.9597 11.4364 68.9783L11.6057 69L11.5774 68.8324C11.1197 66.1858 10.8376 63.2474 10.7373 60.0981L10.6808 58.1743C10.6808 58.1743 10.684 57.5879 10.7122 56.5174V56.5019L10.7059 56.4709C10.7279 54.845 10.7968 53.6939 10.8188 53.3154C10.8219 53.2471 10.825 53.2037 10.825 53.1726C10.9034 52.0773 11.0226 50.9262 11.1793 49.7534C11.2012 49.5982 11.2232 49.4462 11.2451 49.291C12.0132 49.2197 13.3268 49.08 14.54 48.8691C14.5713 48.8628 14.6027 48.8597 14.6309 48.8535C14.8221 48.8194 15.0008 48.7884 15.1733 48.7884C15.377 48.7884 15.54 48.8287 15.678 48.9125C15.772 48.9714 15.8535 49.0521 15.9413 49.1359L15.9507 49.1452C15.9946 49.1886 16.0385 49.2321 16.0855 49.2724C16.6185 49.7378 17.3834 49.7999 18.0668 49.7999H18.1483C20.6469 49.7813 23.1267 49.4027 25.5155 48.6767C26.0265 48.5215 26.5563 48.3354 26.898 47.9165C27.1018 47.6683 27.2021 47.3177 27.1582 47.0012C27.1238 46.7529 27.0015 46.5451 26.8134 46.4178L26.7695 46.3868L26.7193 46.4085C23.9637 47.6341 20.904 48.2826 17.8693 48.2826C17.816 48.2826 17.7659 48.2826 17.7157 48.2826L18.0543 48.1461C18.813 47.8358 19.5716 47.5255 20.3303 47.2184C20.7848 47.0322 21.2426 46.815 21.4212 46.3806C21.509 46.1665 21.4745 45.8966 21.3241 45.6794C21.2018 45.4994 21.0294 45.3939 20.8475 45.3939C20.7817 45.3939 20.719 45.4063 20.6594 45.4343C19.3961 45.9866 17.7627 46.5233 16.0636 46.9515C14.4679 47.3518 12.9035 47.6279 11.4803 47.7769C12.5587 41.2858 14.609 35.1857 17.5809 29.6348C21.8476 21.673 27.895 15.1385 35.56 10.2113C42.739 5.59745 49.8303 3.05626 55.5297 3.05626C60.2635 3.05626 63.7245 4.79692 65.0255 7.82836C66.8281 12.042 64.1979 17.8163 57.8088 23.6743L57.7211 23.7488C56.8025 24.4625 53.5202 27.0067 49.8021 29.7248C48.0716 31.1366 47.1029 32.3156 47.2785 32.7966C47.3631 33.0355 47.686 33.0541 48.1155 32.8183C48.7488 32.4708 49.3977 31.9588 49.8303 31.6175C50.031 31.4624 50.1877 31.3351 50.288 31.2731C53.3384 28.8653 57.6176 27.4815 62.0285 27.4815C65.4268 27.4815 68.6088 28.2789 71.2265 29.79C74.5308 31.6951 76.8193 35.3005 77.1986 39.1945C77.4275 41.534 76.9666 43.827 75.8976 45.6483C74.0386 48.8163 70.4992 50.5197 67.8533 51.3916C65.8281 52.0587 63.69 52.4869 61.6241 52.8965C60.3701 53.1478 59.0754 53.4053 57.8151 53.7156C57.533 53.7839 57.0784 54.1283 57 54.5099C56.9593 54.7147 57.0345 54.904 57.2226 55.0405C57.301 55.0964 57.4138 55.1212 57.5737 55.1212C57.7618 55.1212 57.9844 55.0871 58.1662 55.0591C58.2603 55.0436 58.3418 55.0312 58.4013 55.0281C58.812 54.994 59.2227 54.9567 59.6303 54.9164C61.9094 54.6899 64.2575 54.3052 67.2482 53.666C78.7254 50.7338 80.0671 43.6812 79.8445 39.7375C79.6157 35.6387 77.4306 31.4686 74.0041 28.5799L73.9916 28.583ZM127.048 42.5549C125.129 42.5549 122.828 44.6213 121.399 46.6723C121.163 46.995 120.897 47.5442 120.656 48.0406C120.502 48.3509 120.314 48.7356 120.239 48.8256L120.201 48.8722C120.17 48.9094 120.145 48.9342 120.119 48.9559C119.978 49.0831 119.825 49.1483 119.662 49.1483C119.42 49.1483 119.254 49.0056 119.21 48.9621C119.201 48.9528 119.16 48.9156 119.091 48.8566C117.351 47.3673 116.486 46.3403 116.066 45.7352C115.828 45.4374 115.499 45.2853 115.085 45.2853C114.599 45.2853 114.11 45.5087 113.856 45.6452C113.429 45.9152 112.991 46.2565 112.527 46.6164L112.505 46.6319C112.041 46.995 111.514 47.4076 110.909 47.8141C110.458 48.1151 110 48.2702 109.545 48.2702C107.727 48.2702 105.871 45.8997 105.348 45.1705C105.166 44.9192 104.987 44.671 104.808 44.4352C104.579 44.1342 104.313 43.9946 103.968 43.9946C102.918 43.9946 101.824 45.3412 100.767 46.6412L100.648 46.7871C100.485 46.9888 100.319 47.0291 100.209 47.0291C100.134 47.0291 100.062 47.0105 99.9899 46.9732C99.8864 46.9205 99.8174 46.8088 99.808 46.6878C99.7704 46.21 99.7234 45.7414 99.6795 45.3039C99.5948 44.4631 99.5541 44.0132 99.5729 43.7587C99.5948 43.4516 99.6952 43.2251 99.7986 42.9861C100.156 42.1794 100.711 40.4139 100.419 37.6649C100.244 36.0049 99.8645 34.9003 99.692 34.5962C99.692 34.5776 99.6858 34.5621 99.6795 34.5527H99.667C99.6481 34.5279 99.6325 34.5124 99.6199 34.5124C99.5447 34.4379 99.4726 34.3759 99.4036 34.3759C99.3629 34.3759 99.3221 34.3852 99.2876 34.4007C98.6011 34.7203 97.2436 37.1095 97.6888 42.1267L97.6951 42.2104C97.6951 42.226 97.6951 42.2446 97.6951 42.2601C97.4349 47.1005 96.3564 48.6798 92.4565 49.9302C91.7888 50.1443 91.2088 50.2467 90.6759 50.2467C88.4939 50.2467 87.8042 48.4005 87.2493 46.9174C87.1177 46.5699 86.9829 46.21 86.8324 45.8842C86.7321 45.667 86.6255 45.5087 86.5283 45.4249C86.4562 45.3629 86.3653 45.3412 86.2681 45.3629C85.9358 45.4498 85.5188 45.9586 84.7602 47.0012C84.4529 47.4263 84.1332 47.8637 83.8009 48.2485C83.3745 48.7387 83.0579 48.9559 82.7726 48.9559C82.572 48.9559 82.4027 48.8411 82.3118 48.6488C82.0641 48.112 82.4403 47.1067 83.3463 45.8842C83.9576 45.0588 85.2398 44.6275 86.1897 44.6275C86.3339 44.6275 86.4374 44.5996 86.522 44.5344C86.5283 44.5344 86.5377 44.5344 86.5471 44.5344C86.7101 44.5344 86.8449 44.3948 86.8449 44.2273C86.8449 44.1187 86.7916 44.0163 86.7227 43.979C86.312 43.585 85.3872 43.3771 84.6881 43.3771C84.199 43.3771 83.6253 43.6191 82.8322 44.1559C81.8603 44.8168 81.039 45.8252 80.5123 46.995C80.0452 48.0344 79.8728 49.0769 80.0452 49.7844C80.2552 50.6439 80.6973 51.0255 81.4716 51.0255C83.2523 51.0255 84.873 49.3252 85.2241 48.8691L85.3182 48.7511C85.4624 48.5495 85.5941 48.3509 85.7163 48.143C85.7508 48.2671 85.7978 48.4222 85.8637 48.6053L85.8731 48.6239C85.9515 48.838 87.196 52.0618 90.8201 52.0618C91.3718 52.0618 91.9612 51.9905 92.5662 51.8477C95.4159 51.1124 96.8204 48.7915 97.3189 47.752L97.3063 47.9568V48.0996C97.2875 48.7325 97.2844 50.2405 97.5697 50.6066C97.8016 50.9045 98.2531 51.0813 98.7829 51.0813C98.9835 51.0813 99.2657 51.0565 99.4412 50.9976C100.256 50.8921 100.943 49.4896 101.444 48.4688C101.532 48.2888 101.614 48.1213 101.689 47.9786L101.736 47.8886C101.993 47.3952 102.216 46.9701 102.432 46.7157C102.62 46.4892 102.912 46.1882 103.247 46.1882C103.539 46.1882 104.15 46.8584 105.623 48.475C105.981 48.8691 106.395 49.3221 106.893 49.8619C107.429 50.3398 108.131 50.5818 108.981 50.5818C110.586 50.5818 111.915 49.3252 112.887 48.4036C112.984 48.3105 113.078 48.2206 113.169 48.1368C113.661 47.6807 114.119 47.448 114.533 47.448C115.047 47.448 115.314 47.7986 115.386 47.9072C115.605 48.1957 117.561 50.7556 118.135 51.3916C118.489 51.7857 118.79 51.8198 119.499 51.8632L119.812 51.885C119.834 51.885 119.859 51.885 119.884 51.885C120.21 51.885 121 51.795 121.355 50.979C121.524 50.6252 121.687 50.2219 121.837 49.8371C122.126 49.1018 122.455 48.264 122.891 47.6031C123.919 46.0331 126.082 44.3452 128.396 44.3452C128.43 44.3452 128.531 44.3452 128.643 44.3514C128.778 44.3545 128.926 44.3607 128.998 44.3607C129.502 44.3607 129.841 44.1001 129.841 43.8549C129.841 43.6098 129.734 43.4205 129.487 43.2064C129.057 42.8869 128.189 42.5487 127.041 42.5487L127.048 42.5549ZM19.4588 50.7028C19.3898 50.7028 19.3177 50.7152 19.2487 50.74C19.0387 50.8114 18.8631 50.8424 18.6625 50.8424C18.6374 50.8424 18.6123 50.8424 18.5841 50.8424H18.5559C18.28 50.8424 18.1201 50.9727 18.0355 51.0844C17.9069 51.252 17.8631 51.4847 17.9132 51.705C17.8474 51.8446 17.8317 51.9967 17.8693 52.1549C17.885 52.2201 17.8975 52.2914 17.9132 52.3597V52.3659C17.979 52.6762 18.0543 53.0268 18.2142 53.2967C18.3803 53.5729 18.6719 53.7218 19.0606 53.7218C19.1954 53.7218 19.3365 53.7063 19.4807 53.6722C19.9509 53.5605 20.1861 53.2378 20.1955 52.6824C20.2017 52.2759 20.1892 51.8601 20.1579 51.4102C20.1328 51.0689 19.8569 50.7028 19.4588 50.7028ZM54.63 54.1314C54.5422 54.1314 54.4482 54.1469 54.3447 54.181L54.0281 54.2896C53.7679 54.3765 53.376 54.5037 53.0844 54.6278C52.7866 54.7457 52.7396 55.0405 52.7365 55.1677H52.7333L52.7365 55.2391C52.7521 55.6145 52.7835 56.1389 52.8305 56.7998L52.8368 56.9642V56.9705L52.865 56.9984C52.8932 57.0263 52.9528 57.0697 53.0562 57.1163C53.1503 57.1566 53.2631 57.2156 53.3697 57.2714C53.6769 57.4266 54.1378 57.6624 54.4544 57.6624C54.6237 57.6624 54.7554 57.5817 54.8494 57.1783C55.0501 56.3096 55.1504 55.3539 55.1159 54.6247C55.0971 54.3145 54.9184 54.1345 54.63 54.1345V54.1314ZM17.4994 52.6141C17.4806 52.5179 17.4618 52.428 17.4461 52.338C17.4367 52.2759 17.4273 52.2139 17.421 52.1487V52.127C17.3865 51.8819 17.3552 51.6274 17.2298 51.4133C17.0668 51.1372 16.8066 50.9976 16.4617 50.9976C16.1702 50.9976 15.8598 51.0938 15.5871 51.1775L15.5526 51.1899C15.4805 51.2117 15.4115 51.2334 15.3457 51.252C14.9413 51.3637 14.8221 51.6957 14.8441 51.9718C14.7155 52.1363 14.6842 52.3473 14.7626 52.5645C14.7971 52.6638 14.8284 52.7693 14.8598 52.8717C14.935 53.1168 15.0134 53.3712 15.1325 53.5946C15.3206 53.9452 15.6529 54.0011 15.9758 54.0259L16.0981 54.0352C16.2642 54.0507 16.4272 54.0631 16.5934 54.0631C16.979 54.0631 17.2329 53.9856 17.3991 53.8211C17.5276 53.6939 17.5934 53.5108 17.5903 53.2843C17.5903 53.064 17.5402 52.8282 17.4963 52.6234V52.6172L17.4994 52.6141Z" fill="white"></path>
  </g>
  <defs>
    <clipPath id="clip0_359_10487">
      <rect width="170" height="69" fill="white"></rect>
    </clipPath>
  </defs>
</svg>
