<?xml version="1.0" encoding="UTF-8"?>
<svg xmlns="http://www.w3.org/2000/svg" width="159" height="20" viewBox="0 0 159 20" fill="none">
  <g clip-path="url(#clip0_73_10994)">
    <path d="M6.73016 18.2906H0V19.7151H6.73016V18.2906Z" fill="white"></path>
    <path d="M25.0138 1.4245V0H19.0688L12.7312 11.9658L6.33757 0H0V1.4245H3.75767L11.3291 15.4986H12.5069L19.4614 2.79202V18.2906H16.9937V19.7151H25.0138V18.2906H22.4899V1.4245H25.0138Z" fill="white"></path>
    <path d="M27.6499 13.8462C27.6499 12.5926 27.6499 11.339 27.706 10.0285C27.7621 8.71796 27.7621 7.52138 27.7621 6.3248H25.6309V4.9003H30.6224C30.5663 6.38178 30.5663 7.7493 30.5102 9.11682C30.5102 10.4843 30.4541 11.8519 30.4541 13.2764C30.4541 16.0684 30.8467 18.0627 33.5388 18.0627C35.5018 18.0627 36.6795 16.6382 37.2965 14.7578V6.3248V4.9003H40.2129V18.2906H42.288V19.7151H37.3526V16.5242C36.96 18.2336 34.997 20 32.6414 20C29.5007 20 27.6499 18.8034 27.6499 13.8462Z" fill="white"></path>
    <path d="M91.9795 15.7835C91.9795 16.5242 92.0356 17.4929 92.0917 18.2906H93.9425V19.7151H89.1753V17.037C89.1753 17.094 88.2779 20 84.5763 20C82.2208 20 80.2578 18.5755 80.2578 16.0684C80.2578 13.1054 82.3329 12.0228 85.2493 11.6239C86.371 11.453 87.661 11.396 89.1192 11.396C89.1753 10.8262 89.1753 10.5413 89.1753 9.74359C89.1753 6.95157 88.1097 6.21082 86.5393 6.21082C85.4737 6.21082 84.8007 6.26781 84.1837 6.60969V9.17379H81.716V6.03989C83.8472 4.90028 85.6419 4.67236 87.2684 4.67236C90.97 4.67236 92.0917 6.38176 92.0917 9.28775C92.1478 12.2507 91.9795 13.1054 91.9795 15.7835ZM85.8663 18.1197C87.3806 18.1197 88.4462 17.208 89.1753 15.8974V12.5356C87.9975 12.5356 86.988 12.5926 86.2589 12.7635C84.5763 13.1054 83.3985 13.7322 83.3985 15.4986C83.3425 17.265 84.352 18.1197 85.8663 18.1197Z" fill="white"></path>
    <path d="M115.255 15.7835C115.255 16.5242 115.311 17.4929 115.367 18.2906H117.218V19.7151H112.451V17.037C112.451 17.094 111.553 20 107.852 20C105.496 20 103.533 18.5755 103.533 16.0684C103.533 13.1054 105.608 12.0228 108.525 11.6239C109.646 11.453 110.936 11.396 112.395 11.396C112.451 10.8262 112.451 10.5413 112.451 9.74359C112.451 6.95157 111.385 6.21082 109.815 6.21082C108.749 6.21082 108.076 6.26781 107.459 6.60969V9.17379H104.991V6.03989C107.123 4.90028 108.917 4.67236 110.544 4.67236C114.245 4.67236 115.367 6.38176 115.367 9.28775C115.423 12.2507 115.255 13.1054 115.255 15.7835ZM109.142 18.1197C110.656 18.1197 111.722 17.208 112.451 15.8974V12.5356C111.273 12.5356 110.263 12.5926 109.534 12.7635C107.852 13.1054 106.674 13.7322 106.674 15.4986C106.618 17.265 107.627 18.1197 109.142 18.1197Z" fill="white"></path>
    <path d="M146.886 15.7835C146.886 16.5242 146.942 17.4929 146.998 18.2906H148.849V19.7151H144.082V17.037C144.082 17.094 143.184 20 139.483 20C137.127 20 135.164 18.5755 135.164 16.0684C135.164 13.1054 137.239 12.0228 140.156 11.6239C141.277 11.453 142.567 11.396 144.025 11.396C144.082 10.8262 144.082 10.5413 144.082 9.74359C144.082 6.95157 143.016 6.21082 141.446 6.21082C140.38 6.21082 139.707 6.26781 139.09 6.60969V9.17379H136.622V6.03989C138.753 4.90028 140.548 4.67236 142.175 4.67236C145.876 4.67236 146.998 6.38176 146.998 9.28775C147.054 12.2507 146.886 13.1054 146.886 15.7835ZM140.773 18.1197C142.287 18.1197 143.352 17.208 144.082 15.8974V12.5356C142.904 12.5356 141.894 12.5926 141.165 12.7635C139.483 13.1054 138.305 13.7322 138.305 15.4986C138.305 17.265 139.258 18.1197 140.773 18.1197Z" fill="white"></path>
    <path d="M102.41 19.7151H95.3996V18.2906H97.4747V1.4245H95.1191V0H100.391V18.2906H102.466V19.7151H102.41Z" fill="white"></path>
    <path d="M126.752 4.90028H132.865V6.32479H131.07L126.752 11.339L132.416 18.2906H133.818V19.7151H129.836L124.677 12.7066H123.667V18.2906H125.742V19.7151H118.732V18.2906H120.807V1.4245H118.451V0H123.723V11.567H124.677L128.939 6.32479H126.752V4.90028Z" fill="white"></path>
    <path d="M159.001 6.72365V4.90028H154.402V0H151.485V4.90028H149.018V6.72365H151.485V15.7835C151.485 17.9487 153.224 19.7151 155.355 19.7151H158.496V18.2906H156.14C155.187 18.2906 154.402 17.4929 154.402 16.5242V6.72365H159.001Z" fill="white"></path>
    <path d="M79.4167 6.72365V4.90028H74.8177V0H71.9013V4.90028H69.4336V6.72365H71.9013V15.7835C71.9013 17.9487 73.6399 19.7151 75.7712 19.7151H78.9119V18.2906H76.5563C75.6029 18.2906 74.8177 17.4929 74.8177 16.5242V6.72365H79.4167Z" fill="white"></path>
    <path d="M67.1892 7.63534C67.3574 8.43306 67.3014 9.62964 67.3014 10.8832V18.3476H69.3765V19.7721H62.5903V18.3476H64.441V10.9402C64.441 8.37608 64.1045 6.55272 61.5807 6.55272C58.7204 6.55272 58.1035 8.54702 58.1035 9.85756V18.2906H60.0664V19.7151H53.3363V18.2906H55.1871V11.453C55.1871 8.71796 55.0188 6.55272 52.4389 6.55272C50.1955 6.55272 48.9056 8.77494 48.9617 10.2564V18.2906H50.8125V19.7151H43.9701V18.2906H45.9892V6.3248H43.9141V4.9003H48.8495V6.26782C51.2611 4.55842 53.2802 4.6154 53.2802 4.6154C54.9067 4.6154 56.5892 4.95728 57.4865 6.38178C58.9447 5.35614 60.6834 4.6154 62.422 4.6154C64.7776 4.67238 66.7966 5.35614 67.1892 7.63534Z" fill="white"></path>
  </g>
  <defs>
    <clipPath id="clip0_73_10994">
      <rect width="159" height="20" fill="white"></rect>
    </clipPath>
  </defs>
</svg>
